<svg width="1470" height="527" viewBox="0 0 1470 527" fill="none" xmlns="http://www.w3.org/2000/svg">
<g clip-path="url(#clip0_997_28258)">
<rect width="1470" height="527" fill="#CFECFE"/>
<g filter="url(#filter0_d_997_28258)">
<path d="M634.834 564.574C658.362 564.574 764.438 564.601 899.025 564.574C936.188 564.57 975.526 564.556 1015.9 564.538C1046.53 564.525 1077.76 564.512 1109.09 564.494C1126.79 564.48 1144.51 564.476 1162.17 564.462C1399.05 564.274 1436.8 566.945 1474.4 564.574C1544.33 564.574 1723.46 290.774 1510.22 110.999C1427.41 41.1915 1533.69 -51.5527 1396.15 -121.204C1305.71 -167.009 1240.02 -86.5396 1130.83 -115.53C1050.17 -136.947 1033.76 -187.189 874.295 -173.265C720.94 -159.879 717.853 -33.0307 766.502 71.7148C797.219 137.848 646.614 117.426 576.972 216.122C458.106 384.571 633.78 562.069 634.834 564.574Z" fill="#EBF3FA"/>
</g>
<path d="M1349.79 399.508C1349.79 399.508 1356.56 399.261 1361.53 397.834C1366.65 396.361 1370.52 391.147 1374.59 391.45C1383.12 392.083 1399.35 389.433 1397.74 392.439C1396.13 395.445 1386.34 394.67 1385.18 396.453C1384.03 398.236 1399.13 402.788 1403.51 403.595C1407.88 404.403 1424.2 406.232 1423.64 408.4C1423.07 410.569 1401.32 420.707 1388.47 418.001C1375.62 415.295 1352.54 410.668 1352.54 410.668L1349.79 399.508Z" fill="#FFB27D"/>
<path d="M1171.31 74.1046C1152.42 64.3029 1137.28 70.4627 1137.28 70.4627C1079.46 63.6734 1062.6 131.082 1063.38 154.278C1064.15 177.467 1069.91 195.969 1042.58 219.992C1010.02 248.622 1017.59 286.458 1034.48 299.862C1041.8 305.676 1051.37 310.056 1061.52 313.355C1074.06 317.441 1087.46 319.87 1098.51 321.314C1104.6 322.112 1109.97 322.609 1114.08 322.912C1114.08 322.912 1114.08 322.912 1114.09 322.912C1114.76 322.962 1115.38 323.005 1115.98 323.044H1115.99C1120.14 323.324 1122.6 323.384 1122.6 323.384C1123.07 298.481 1134.07 285.753 1147.83 279.998C1147.83 279.998 1147.84 279.998 1147.84 279.995C1151.03 278.657 1154.37 277.694 1157.77 277.045C1157.77 277.045 1157.77 277.045 1157.77 277.045C1167.16 275.242 1176.95 275.826 1185.07 277.404C1196.66 279.665 1204.85 283.956 1203.65 286.27C1210.38 287.885 1216.3 288.544 1221.48 288.353C1229.05 288.083 1235.04 285.996 1239.64 282.447C1282 249.789 1207.63 92.9366 1171.31 74.1046Z" fill="#163560"/>
<path d="M1175.37 228.402C1175.37 228.402 1218.97 234.624 1234.08 255.028C1253.15 280.804 1271.92 353.476 1285.57 366.485C1299.23 379.493 1356.31 398.899 1356.31 398.899C1356.31 398.899 1358.41 411.416 1351.87 415.239C1340.78 421.712 1284.8 418.897 1252.32 401.456C1221.15 384.72 1199.08 348.121 1199.08 348.121L1175.37 228.402Z" fill="#8C9DF4"/>
<path d="M940.871 332.083C940.871 332.083 931.759 315.047 923.27 313.959C914.781 312.875 899.412 307.035 900.388 310.301C901.364 313.567 911.115 314.767 911.89 316.744C912.665 318.722 896.953 320.162 892.509 320.079C888.065 319.997 877.684 318.738 877.799 320.976C877.915 323.21 895.532 334.024 908.663 333.938C921.79 333.852 937.423 340.352 937.423 340.352L940.871 332.083Z" fill="#FFB27D"/>
<path d="M1093.22 351.104C1093.22 351.104 1086.45 361.957 1074.85 374.079C1060.87 388.666 1039.87 405.079 1015.23 406.467C1003.47 407.129 992.338 403.606 982.32 398.026C982.293 398.013 982.284 398.013 982.284 398.013C953.945 382.243 934.472 350.106 934.472 350.106C930.552 335.446 937.719 326.903 937.719 326.903C937.719 326.903 998.187 344.944 1004.28 343.062C1028.79 335.485 1045.93 271.346 1060.42 250.853C1072.58 233.666 1115.01 228.406 1115.01 228.406L1093.22 351.104Z" fill="#8C9DF4"/>
<path d="M1074.85 374.079C1060.87 388.667 1039.87 405.08 1015.23 406.467C1003.47 407.13 992.338 403.606 982.32 398.027C983.46 398.284 1012.62 404.592 1026.27 384.633C1040.2 364.271 1056.24 331.386 1073.03 344.348C1080.27 349.945 1078.83 362.086 1074.85 374.079Z" fill="#6F84DD"/>
<path d="M1225.8 364.63C1224.63 373.904 1222.87 383.772 1220.41 394.242C1216.55 410.715 1209.87 417.191 1206.97 419.317C1206.08 419.966 1205.54 420.213 1205.54 420.213L1153.91 432.862L1135.75 437.308L1078.5 420.213C1078.5 420.213 1052.42 347.449 1062.9 306.489C1073.36 265.529 1080.83 246.031 1080.83 246.031C1080.83 246.031 1118.06 230.881 1198.26 244.314C1198.26 244.314 1236.47 279.981 1225.8 364.63Z" fill="#8C9DF4"/>
<path d="M1163.32 529.514C1140.63 529.504 1117.48 529.494 1094.26 529.481C1081.15 529.471 1068.01 529.468 1054.92 529.458C1060.79 500.544 1073.59 458.19 1079.3 439.83C1081.06 434.167 1082.15 430.786 1082.15 430.786H1158.86C1158.86 430.786 1158.86 431.083 1158.86 431.653V431.92C1158.88 433.907 1158.93 438.472 1159.07 445.195C1159.46 461.947 1160.5 492.147 1163.32 529.514Z" fill="#2B478B"/>
<path d="M1249.93 529.536C1222.39 529.533 1193.24 529.523 1163.32 529.51C1140.63 529.5 1117.48 529.49 1094.26 529.477C1087.28 513.39 1095.14 469.398 1099.51 448.348C1099.76 447.168 1099.99 446.055 1100.21 445.026C1100.28 444.687 1100.36 444.351 1100.43 444.028C1101.41 439.522 1102.06 436.83 1102.06 436.83L1113.38 435.851L1117.45 435.495L1126.94 434.674L1157.21 432.054H1157.22L1158.87 431.912L1202.27 428.152C1202.27 428.152 1204.67 431.372 1208.4 436.81C1220.47 454.449 1246.47 495.402 1249.55 525.374C1249.68 526.663 1249.81 528.05 1249.93 529.536Z" fill="#2B478B"/>
<path d="M1208.4 359.762C1215.35 372.352 1223.67 378.535 1223.67 378.535C1221.65 406.546 1209.87 417.191 1206.97 419.317L1205.54 419.736L1160.61 424.083C1160.61 424.083 1180.54 417.109 1184.47 404.357C1188.41 391.609 1182.05 375.365 1187.26 355.511C1191.86 338.033 1196.21 337.714 1208.4 359.762Z" fill="#6F84DD"/>
<path d="M1077.62 417.165C1077.62 417.165 1089 426.166 1111.61 426.62C1138.61 427.164 1205.54 419.736 1205.54 419.736C1205.54 419.736 1208.51 428.041 1208.39 436.811C1208.39 436.811 1126.65 457.423 1079.3 439.82C1079.3 439.823 1073.19 428.334 1077.62 417.165Z" fill="#233862"/>
<path d="M1117.44 435.498C1117.41 434.163 1117.21 432.884 1116.86 431.668V431.665C1116.77 431.365 1116.68 431.075 1116.57 430.785C1116.04 429.259 1115.26 427.861 1114.31 426.655C1112.05 423.801 1108.77 422.005 1105.13 422.005C1102.21 422.005 1099.52 423.162 1097.41 425.09C1097.2 425.278 1097 425.475 1096.8 425.68C1095.45 427.084 1094.38 428.824 1093.69 430.785C1093.12 432.383 1092.81 434.127 1092.81 435.949C1092.81 439.021 1093.69 441.862 1095.18 444.169C1096.31 445.916 1097.8 447.359 1099.51 448.355C1101.2 449.34 1103.11 449.89 1105.13 449.89C1108.23 449.89 1111.06 448.595 1113.23 446.45C1115.82 443.895 1117.45 440.135 1117.45 435.949C1117.45 435.798 1117.45 435.646 1117.44 435.498ZM1113.37 435.946C1113.37 441.101 1110.04 445.349 1105.82 445.767H1105.8C1105.58 445.797 1105.35 445.807 1105.13 445.807C1104.31 445.807 1103.51 445.665 1102.76 445.395H1102.75C1101.91 445.088 1101.13 444.627 1100.43 444.031C1098.29 442.248 1096.89 439.291 1096.89 435.949C1096.89 434.054 1097.34 432.288 1098.12 430.785C1098.93 429.2 1100.11 427.911 1101.52 427.087C1102.34 426.599 1103.24 426.276 1104.2 426.148C1104.5 426.105 1104.82 426.085 1105.13 426.085C1105.87 426.085 1106.59 426.204 1107.27 426.424C1107.27 426.431 1107.27 426.431 1107.28 426.431C1107.28 426.431 1107.28 426.431 1107.29 426.431C1109.12 427.021 1110.71 428.359 1111.8 430.159V430.165C1111.92 430.366 1112.04 430.574 1112.15 430.791C1112.91 432.268 1113.36 434.001 1113.38 435.86V435.946H1113.37Z" fill="#6F84DD"/>
<path d="M1173.38 232.139C1170.33 226.414 1161.6 197.299 1161.66 182.181L1159.07 182.613L1115.49 189.923C1115.49 189.923 1116.48 201.541 1116.51 212.486C1116.51 212.578 1116.51 212.667 1116.51 212.76C1116.56 222.265 1116.38 226.945 1118.29 238.724C1119.15 244.036 1117.33 282.178 1135.58 279.44C1142.09 278.458 1175.39 235.919 1173.38 232.139Z" fill="#FFB27D"/>
<path d="M1115.48 189.922C1115.48 189.922 1116.47 201.539 1116.5 212.484C1140.89 211.901 1153.79 193.059 1159.07 182.612L1115.48 189.922Z" fill="#E8945B"/>
<path d="M1107.34 203.551C1107.34 203.551 1165.05 204.504 1165.09 168.566C1165.13 132.629 1172.6 108.55 1135.76 106.425C1098.92 104.299 1091.74 118.003 1088.81 129.993C1085.88 141.986 1092.33 202.378 1107.34 203.551Z" fill="#FFB27D"/>
<path d="M1109.48 105.544C1109.48 105.544 1125.28 147.703 1149.52 153.939C1173.77 160.171 1184.29 153.679 1184.29 153.679C1184.29 153.679 1165.69 138.907 1161.83 113.124C1161.83 113.121 1121.39 85.4759 1109.48 105.544Z" fill="#163560"/>
<path d="M1113.39 108.963C1113.39 108.963 1101.67 113.343 1096.85 121.886C1092.14 130.241 1088.12 141.305 1089.05 154.877C1089.05 154.877 1077.15 126.22 1090.52 110.011C1104.71 92.8204 1113.39 108.963 1113.39 108.963Z" fill="#163560"/>
<path d="M1130.57 280.169C1130.57 280.169 1168.17 238.903 1169.68 222.282C1169.68 222.282 1177.5 222.431 1191.82 229.866C1192.89 230.423 1193.4 231.725 1192.92 232.839C1190.12 239.473 1180.47 261.047 1171.23 267.372C1171.23 267.372 1163.28 266.212 1157.02 263.601C1157.02 263.601 1160.97 270.219 1164.1 274.174C1164.1 274.171 1146.78 283.87 1130.57 280.169Z" fill="#6F84DD"/>
<path d="M1116.58 221.593C1116.58 221.593 1117.45 248.141 1130.57 280.169C1130.57 280.169 1112.78 276.672 1103.69 264.069C1103.69 264.069 1106.57 257.346 1108.99 255.797C1108.99 255.797 1103.65 253.641 1100.28 256.746C1100.28 256.746 1096.71 233.343 1099.44 229.243C1100.57 227.539 1113.8 220.852 1116.58 221.593Z" fill="#6F84DD"/>
<path d="M1133.41 280.183C1133.42 278.617 1132.16 277.339 1130.59 277.332C1129.02 277.325 1127.75 278.588 1127.74 280.153C1127.73 281.719 1129 282.998 1130.56 283.004C1132.13 283.014 1133.41 281.752 1133.41 280.183Z" fill="#233862"/>
<path d="M1118.07 320.328C1118.07 318.763 1116.81 317.484 1115.24 317.477C1113.68 317.471 1112.4 318.733 1112.39 320.299C1112.39 321.864 1113.65 323.143 1115.22 323.149C1116.78 323.156 1118.06 321.894 1118.07 320.328Z" fill="#233862"/>
<path d="M1114.98 367.485C1114.99 365.916 1113.73 364.641 1112.16 364.634C1110.59 364.624 1109.31 365.89 1109.31 367.455C1109.3 369.021 1110.56 370.3 1112.13 370.306C1113.7 370.316 1114.97 369.05 1114.98 367.485Z" fill="#233862"/>
<path d="M1343.95 341.868V354.682C1343.95 357.134 1341.95 359.141 1339.49 359.141H1330.31C1327.86 359.141 1325.85 357.134 1325.85 354.682V341.868C1325.85 339.416 1327.86 337.409 1330.31 337.409H1339.49C1341.94 337.409 1343.95 339.416 1343.95 341.868Z" fill="#ED7D2B"/>
<path d="M1343.95 341.868V349.007C1343.95 351.459 1341.95 353.466 1339.49 353.466H1330.31C1327.86 353.466 1325.85 351.459 1325.85 349.007V341.868C1325.85 339.416 1327.86 337.409 1330.31 337.409H1339.49C1341.94 337.409 1343.95 339.416 1343.95 341.868Z" fill="#F99746"/>
<path d="M1445.72 348.276C1445.72 354.835 1444.38 361.094 1441.96 366.792C1434.69 383.894 1417.7 395.963 1398.02 395.963H1384.39C1366.98 395.963 1351.67 386.514 1343.34 372.49C1339.12 365.381 1336.69 357.099 1336.69 348.276C1336.69 341.718 1338.03 335.462 1340.45 329.761C1347.72 312.662 1364.71 300.59 1384.39 300.59H1398.02C1415.92 300.59 1431.59 310.573 1439.75 325.239C1443.55 332.081 1445.72 339.938 1445.72 348.276Z" fill="#ED7D2B"/>
<path d="M1406.09 375.721L1401.64 404.605C1401.05 406.843 1402.74 409.032 1405.06 409.032H1416.75C1419.25 409.032 1421.55 407.631 1422.7 405.403L1440.87 369.163L1406.09 375.721Z" fill="#ED7D2B"/>
<path d="M1379.47 376.214L1383.04 404.601C1383.63 406.839 1381.94 409.027 1379.63 409.027H1367.93C1365.43 409.027 1363.13 407.626 1361.98 405.398L1343.34 372.487L1379.47 376.214Z" fill="#ED7D2B"/>
<path d="M1457.08 361.238C1456.81 361.238 1456.55 361.205 1456.28 361.133C1454.21 360.586 1453.02 358.114 1453.18 354.673C1453.34 351.302 1454.76 347.742 1457.05 344.908C1458.07 343.652 1459.25 342.555 1460.56 341.625C1459.94 340.604 1459.1 339.625 1457.98 338.784C1456.07 337.351 1454.09 336.939 1451.94 337.522C1446.16 339.091 1441.26 347.35 1440.87 348.279C1440.69 348.777 1440.14 349.041 1439.64 348.873C1439.13 348.701 1438.85 348.148 1439.02 347.637C1439.19 347.123 1440.62 344.657 1442.62 342.215C1446.1 337.96 1449.13 336.345 1451.06 335.742C1453.93 334.849 1456.65 335.344 1459.15 337.219C1460.39 338.148 1461.42 339.279 1462.21 340.581C1464.2 339.476 1466.43 338.709 1468.86 338.31C1469.4 338.224 1469.9 338.583 1469.99 339.117C1470.08 339.651 1469.71 340.152 1469.18 340.241C1466.95 340.607 1464.91 341.312 1463.1 342.327C1463.65 343.662 1464.01 345.139 1464.15 346.727C1464.43 350 1463.77 353.572 1462.34 356.529C1460.89 359.548 1458.97 361.238 1457.08 361.238ZM1461.43 343.418C1460.37 344.203 1459.41 345.116 1458.57 346.144C1456.53 348.662 1455.28 351.806 1455.14 354.769C1455.02 357.119 1455.7 358.961 1456.78 359.245C1457.86 359.531 1459.43 358.068 1460.58 355.685C1461.85 353.075 1462.45 349.792 1462.2 346.902C1462.11 345.864 1461.89 344.651 1461.43 343.418ZM1440.88 348.26C1440.87 348.266 1440.87 348.273 1440.87 348.276C1440.87 348.27 1440.88 348.266 1440.88 348.26Z" fill="#ED7D2B"/>
<path d="M1439.75 325.243C1440.88 330.743 1439.99 338.604 1438.54 342.766C1428.91 370.444 1406.29 375.444 1383.16 377.547C1366.71 379.043 1343.34 372.494 1343.34 372.494C1339.11 365.385 1336.68 357.103 1336.68 348.28C1336.68 341.722 1338.02 335.466 1340.45 329.765C1347.71 312.666 1364.71 300.594 1384.38 300.594H1398.02C1415.91 300.59 1431.59 310.573 1439.75 325.243Z" fill="#F99746"/>
<path d="M1378.76 312.537H1360C1358.11 312.537 1356.57 311.39 1356.57 309.973V284.365C1356.57 283.927 1356.71 283.531 1356.95 283.185C1357.87 281.854 1360.28 281.307 1362.07 282.322C1369.2 286.359 1380.87 295.132 1382.18 309.799C1382.31 311.282 1380.74 312.537 1378.76 312.537Z" fill="#F99746"/>
<path d="M1360.76 312.537H1360C1358.11 312.537 1356.57 311.39 1356.57 309.973V284.365C1356.57 283.926 1356.71 283.531 1356.95 283.185C1357.03 283.254 1357.11 283.33 1357.18 283.412C1361.26 287.947 1367.13 296.859 1365.48 309.34C1365.24 311.153 1363.2 312.537 1360.76 312.537Z" fill="#ED7D2B"/>
<path d="M1350.87 329.658C1350.87 328.116 1352.13 326.863 1353.67 326.863C1355.21 326.863 1356.47 328.116 1356.47 329.658C1356.47 331.201 1355.21 332.453 1353.67 332.453C1352.12 332.453 1350.87 331.201 1350.87 329.658Z" fill="#2B478B"/>
<path d="M988.639 377.31C988.639 377.31 983.368 384.732 978.532 384.834C973.699 384.936 966.344 381.393 966.344 381.393C966.344 381.393 961.907 371.506 964.917 367.637C964.917 367.637 967.936 366.312 971.091 368.652C971.632 369.057 972.182 369.565 972.726 370.218C973.491 371.137 974.352 371.661 975.265 371.938C978.713 372.986 982.808 370.521 984.337 372.9C985.231 374.285 986.203 375.326 987.004 376.058C987.95 376.898 988.639 377.31 988.639 377.31Z" fill="#FFEDDC"/>
<path d="M919.904 430.836C919.904 430.836 938.54 385.694 972.083 384.833C972.083 384.833 1003.05 388.274 1004.77 430.836H919.904Z" fill="#FFEDDC"/>
<path d="M962.892 386.21C962.892 386.21 976.336 389.199 980.487 387.443C980.487 387.443 981.113 381.823 975.453 382.611C971.576 383.152 969.054 381.29 967.567 380.535C965.467 379.464 962.335 383.86 962.892 386.21Z" fill="#DB6A1D"/>
<path d="M974.596 377.741C973.735 378.387 971.095 368.652 971.095 368.652C971.635 369.057 972.186 369.565 972.73 370.217C973.495 371.137 974.355 371.661 975.268 371.938C975.275 372.221 975.43 377.112 974.596 377.741Z" fill="#E5C1A1"/>
<path d="M987.004 376.055C986.816 376.167 980.595 379.891 979.755 379.891C978.894 379.891 984.34 372.901 984.34 372.901C985.234 374.285 986.206 375.326 987.004 376.055Z" fill="#E5C1A1"/>
<path d="M938.108 418.226C937.762 417.933 951.295 398.306 955.023 398.161C958.752 398.016 967.125 402.459 973.188 403.032C979.25 403.606 985.128 401.885 986.276 405.468C987.423 409.05 990.575 421.752 988.639 423.786C986.704 425.819 945.549 424.58 938.108 418.226Z" fill="#F9DDBF"/>
<path d="M1013.85 520.963V525.993C1013.85 526.392 1013.71 526.764 1013.46 527.074C1013.19 527.4 1012.82 527.654 1012.37 527.799C1012.24 527.845 1012.1 527.878 1011.95 527.901C1011.82 527.921 1011.69 527.931 1011.54 527.931H916.112C914.958 527.931 913.996 527.212 913.824 526.283C913.814 526.22 913.808 526.158 913.805 526.092C913.805 526.059 913.801 526.026 913.801 525.993V520.963C913.801 520.93 913.805 520.897 913.805 520.865C913.808 520.799 913.818 520.736 913.824 520.673C913.996 519.744 914.958 519.026 916.112 519.026H1011.54C1011.68 519.026 1011.81 519.035 1011.95 519.055C1012.09 519.075 1012.24 519.111 1012.37 519.157C1012.81 519.299 1013.19 519.556 1013.45 519.882C1013.71 520.192 1013.85 520.565 1013.85 520.963Z" fill="#FFB93E"/>
<path d="M966.993 527.931H915.865C914.919 527.931 914.121 527.318 913.88 526.497C913.857 526.428 913.838 526.355 913.824 526.283C913.814 526.22 913.808 526.158 913.805 526.092C913.805 526.059 913.801 526.026 913.801 525.993V520.963C913.801 520.93 913.805 520.897 913.805 520.865C913.808 520.799 913.818 520.736 913.824 520.673C913.838 520.601 913.857 520.528 913.88 520.459C914.118 519.635 914.916 519.026 915.865 519.026H960.713C961.428 521.649 963.1 525.274 966.993 527.931Z" fill="#FFA412"/>
<path d="M1002.24 519.025H1001.16V527.93H1002.24V519.025Z" fill="#FFA412"/>
<path d="M998.568 519.025H997.484V527.93H998.568V519.025Z" fill="#FFA412"/>
<path d="M994.164 519.025H993.08V527.93H994.164V519.025Z" fill="#FFA412"/>
<path d="M987.416 519.025H986.331V527.93H987.416V519.025Z" fill="#FFA412"/>
<path d="M980.282 519.025H979.197V527.93H980.282V519.025Z" fill="#FFA412"/>
<path d="M969.34 519.025H968.255V527.93H969.34V519.025Z" fill="#FFA412"/>
<path d="M959.097 519.025H958.013V527.93H959.097V519.025Z" fill="#FFA412"/>
<path d="M949.952 519.026H948.868V527.931H949.952V519.026Z" fill="#FFA412"/>
<path d="M1005.74 519.025H1004.65V527.93H1005.74V519.025Z" fill="#FFA412"/>
<path d="M1008.04 519.025H1006.96V527.93H1008.04V519.025Z" fill="#FFA412"/>
<path d="M1010.27 519.025H1009.19V527.93H1010.27V519.025Z" fill="#FFA412"/>
<path d="M1011.95 519.056V527.902C1011.82 527.922 1011.68 527.932 1011.54 527.932H1010.87V519.027H1011.54C1011.68 519.023 1011.82 519.036 1011.95 519.056Z" fill="#FFA412"/>
<path d="M1013.46 519.882V527.076C1013.19 527.403 1012.82 527.656 1012.37 527.801V519.156C1012.82 519.302 1013.19 519.555 1013.46 519.882Z" fill="#FFA412"/>
<path d="M1003.65 512.056V517.083C1003.65 517.485 1003.5 517.857 1003.26 518.167C1003.19 518.246 1003.12 518.325 1003.04 518.398C1002.8 518.612 1002.5 518.786 1002.17 518.892C1002.04 518.938 1001.9 518.971 1001.75 518.991C1001.62 519.011 1001.48 519.024 1001.34 519.024H905.909C904.759 519.024 903.796 518.302 903.625 517.373C903.615 517.31 903.608 517.247 903.605 517.185C903.602 517.152 903.602 517.119 903.602 517.083V512.056C903.602 512.023 903.602 511.987 903.605 511.954C903.608 511.892 903.618 511.829 903.625 511.766C903.796 510.837 904.759 510.115 905.909 510.115H1001.34C1001.4 510.115 1001.46 510.119 1001.52 510.125C1001.55 510.125 1001.57 510.128 1001.59 510.132C1001.59 510.128 1001.6 510.128 1001.6 510.132C1001.63 510.132 1001.66 510.135 1001.69 510.142C1001.71 510.145 1001.73 510.148 1001.75 510.151C1001.89 510.171 1002.04 510.204 1002.17 510.25C1002.25 510.277 1002.33 510.306 1002.4 510.339H1002.41C1002.46 510.362 1002.51 510.385 1002.55 510.412C1002.58 510.425 1002.61 510.445 1002.64 510.458C1002.66 510.474 1002.69 510.488 1002.72 510.504C1002.82 510.563 1002.91 510.633 1003 510.708C1003.03 510.732 1003.05 510.758 1003.08 510.784C1003.09 510.797 1003.11 510.814 1003.12 510.83C1003.13 510.84 1003.14 510.847 1003.14 510.857L1003.16 510.877C1003.19 510.906 1003.22 510.939 1003.25 510.975C1003.5 511.285 1003.65 511.654 1003.65 512.056Z" fill="#FFB93E"/>
<path d="M956.787 519.024H905.662C904.716 519.024 903.918 518.407 903.681 517.583C903.658 517.514 903.638 517.442 903.625 517.373C903.615 517.31 903.608 517.247 903.605 517.185C903.602 517.152 903.602 517.119 903.602 517.083V512.056C903.602 512.023 903.602 511.987 903.605 511.954C903.608 511.892 903.618 511.829 903.625 511.766C903.638 511.694 903.658 511.625 903.681 511.552C903.918 510.728 904.713 510.115 905.662 510.115H950.51C950.526 510.191 950.549 510.26 950.572 510.336C951.321 512.94 953.002 516.44 956.787 519.024Z" fill="#FFA412"/>
<path d="M992.038 510.119H990.953V519.024H992.038V510.119Z" fill="#FFA412"/>
<path d="M988.365 510.119H987.281V519.024H988.365V510.119Z" fill="#FFA412"/>
<path d="M983.961 510.119H982.876V519.024H983.961V510.119Z" fill="#FFA412"/>
<path d="M977.213 510.119H976.128V519.024H977.213V510.119Z" fill="#FFA412"/>
<path d="M970.079 510.119H968.994V519.024H970.079V510.119Z" fill="#FFA412"/>
<path d="M959.137 510.119H958.053V519.024H959.137V510.119Z" fill="#FFA412"/>
<path d="M948.894 510.119H947.81V519.024H948.894V510.119Z" fill="#FFA412"/>
<path d="M939.746 510.118H938.662V519.023H939.746V510.118Z" fill="#FFA412"/>
<path d="M995.532 510.119H994.448V519.024H995.532V510.119Z" fill="#FFA412"/>
<path d="M997.84 510.119H996.756V519.024H997.84V510.119Z" fill="#FFA412"/>
<path d="M1000.07 510.119H998.984V519.024H1000.07V510.119Z" fill="#FFA412"/>
<path d="M1001.75 510.147V518.99C1001.61 519.009 1001.48 519.019 1001.34 519.019H1000.66V510.114H1001.34C1001.48 510.117 1001.61 510.127 1001.75 510.147Z" fill="#FFA412"/>
<path d="M1003.25 510.976V518.17C1002.99 518.497 1002.61 518.754 1002.17 518.896V510.251C1002.61 510.392 1002.99 510.65 1003.25 510.976Z" fill="#FFA412"/>
<path d="M1008.58 503.367V508.397C1008.58 508.796 1008.43 509.168 1008.18 509.478C1007.92 509.804 1007.54 510.058 1007.1 510.203C1006.97 510.246 1006.82 510.279 1006.68 510.305C1006.55 510.321 1006.41 510.335 1006.27 510.335H910.841C910.458 510.335 910.096 510.256 909.776 510.114C909.143 509.837 908.678 509.316 908.56 508.706C908.55 508.664 908.546 508.624 908.543 508.581C908.54 508.555 908.536 508.525 908.536 508.496C908.533 508.463 908.533 508.43 908.533 508.397V503.367C908.533 503.334 908.533 503.301 908.536 503.268C908.54 503.206 908.546 503.14 908.556 503.081C908.728 502.148 909.69 501.429 910.841 501.429H1006.27C1006.41 501.429 1006.55 501.439 1006.68 501.459C1006.82 501.479 1006.97 501.512 1007.1 501.558C1007.55 501.703 1007.92 501.96 1008.18 502.286C1008.43 502.596 1008.58 502.969 1008.58 503.367Z" fill="#FFB93E"/>
<path d="M961.719 510.339H910.591C910.248 510.339 909.925 510.259 909.641 510.118C909.074 509.841 908.659 509.32 908.557 508.71C908.547 508.668 908.543 508.628 908.54 508.585C908.537 508.559 908.534 508.529 908.534 508.499C908.53 508.467 908.53 508.434 908.53 508.401V503.371C908.53 503.338 908.53 503.305 908.534 503.272C908.537 503.21 908.543 503.144 908.553 503.085C908.567 503.015 908.586 502.946 908.606 502.877C908.84 502.05 909.638 501.433 910.587 501.433H955.435C956.134 503.981 957.73 507.484 961.399 510.118C961.508 510.194 961.61 510.269 961.719 510.339Z" fill="#FFA412"/>
<path d="M996.966 501.43H995.882V510.335H996.966V501.43Z" fill="#FFA412"/>
<path d="M993.297 501.43H992.213V510.335H993.297V501.43Z" fill="#FFA412"/>
<path d="M988.893 501.43H987.809V510.335H988.893V501.43Z" fill="#FFA412"/>
<path d="M982.145 501.43H981.061V510.335H982.145V501.43Z" fill="#FFA412"/>
<path d="M975.007 501.43H973.923V510.335H975.007V501.43Z" fill="#FFA412"/>
<path d="M964.069 501.43H962.984V510.335H964.069V501.43Z" fill="#FFA412"/>
<path d="M953.826 501.43H952.742V510.335H953.826V501.43Z" fill="#FFA412"/>
<path d="M944.678 501.433H943.593V510.338H944.678V501.433Z" fill="#FFA412"/>
<path d="M1000.46 501.43H999.376V510.335H1000.46V501.43Z" fill="#FFA412"/>
<path d="M1002.77 501.43H1001.69V510.335H1002.77V501.43Z" fill="#FFA412"/>
<path d="M1005 501.43H1003.92V510.335H1005V501.43Z" fill="#FFA412"/>
<path d="M1006.68 501.459V510.302C1006.55 510.321 1006.41 510.331 1006.27 510.331H1005.59V501.426H1006.27C1006.41 501.429 1006.55 501.439 1006.68 501.459Z" fill="#FFA412"/>
<path d="M1008.19 502.287V509.481C1007.92 509.808 1007.55 510.065 1007.1 510.206V501.562C1007.54 501.703 1007.92 501.96 1008.19 502.287Z" fill="#FFA412"/>
<path d="M1010.87 494.463V499.489C1010.87 499.891 1010.72 500.26 1010.47 500.57C1010.44 500.613 1010.4 500.652 1010.36 500.689C1010.18 500.883 1009.96 501.044 1009.71 501.17C1009.6 501.216 1009.5 501.262 1009.39 501.298C1009.25 501.344 1009.11 501.377 1008.96 501.397C1008.9 501.407 1008.83 501.414 1008.76 501.42C1008.69 501.427 1008.62 501.43 1008.55 501.43H913.126C911.972 501.43 911.01 500.708 910.838 499.779C910.828 499.716 910.822 499.654 910.818 499.591V494.361C910.878 493.415 911.748 492.647 912.852 492.538C912.941 492.528 913.034 492.522 913.126 492.522H1008.55C1008.62 492.522 1008.69 492.525 1008.76 492.532C1008.83 492.538 1008.9 492.545 1008.96 492.555C1009.11 492.574 1009.25 492.607 1009.39 492.653C1009.83 492.795 1010.21 493.052 1010.47 493.378C1010.72 493.688 1010.87 494.061 1010.87 494.463Z" fill="#FFB93E"/>
<path d="M964.007 501.43H912.879C911.933 501.43 911.135 500.817 910.894 499.993C910.871 499.924 910.851 499.851 910.838 499.779C910.828 499.716 910.822 499.654 910.818 499.591V494.361C910.871 493.418 911.649 492.647 912.635 492.538C912.714 492.528 912.796 492.522 912.879 492.522H957.727C957.727 492.528 957.73 492.532 957.73 492.538C958.449 495.158 960.117 498.777 964.007 501.43Z" fill="#FFA412"/>
<path d="M999.255 492.526H998.17V501.431H999.255V492.526Z" fill="#FFA412"/>
<path d="M995.582 492.526H994.498V501.431H995.582V492.526Z" fill="#FFA412"/>
<path d="M991.178 492.526H990.093V501.431H991.178V492.526Z" fill="#FFA412"/>
<path d="M984.43 492.526H983.345V501.431H984.43V492.526Z" fill="#FFA412"/>
<path d="M977.296 492.526H976.211V501.431H977.296V492.526Z" fill="#FFA412"/>
<path d="M966.354 492.526H965.27V501.431H966.354V492.526Z" fill="#FFA412"/>
<path d="M956.111 492.526H955.027V501.431H956.111V492.526Z" fill="#FFA412"/>
<path d="M946.966 492.526H945.882V501.431H946.966V492.526Z" fill="#FFA412"/>
<path d="M1002.75 492.526H1001.66V501.431H1002.75V492.526Z" fill="#FFA412"/>
<path d="M1005.06 492.526H1003.97V501.431H1005.06V492.526Z" fill="#FFA412"/>
<path d="M1007.29 492.526H1006.2V501.431H1007.29V492.526Z" fill="#FFA412"/>
<path d="M1008.96 492.556V501.401C1008.83 501.421 1008.7 501.431 1008.55 501.431H1007.88V492.526H1008.55C1008.7 492.526 1008.83 492.536 1008.96 492.556Z" fill="#FFA412"/>
<path d="M1010.47 493.378V500.573C1010.21 500.899 1009.83 501.156 1009.39 501.298V492.653C1009.83 492.798 1010.21 493.055 1010.47 493.378Z" fill="#FFA412"/>
<path d="M1003.85 485.571V490.597C1003.85 490.999 1003.7 491.368 1003.45 491.678C1003.19 492.004 1002.81 492.261 1002.37 492.406C1002.23 492.452 1002.09 492.485 1001.95 492.505C1001.9 492.515 1001.86 492.518 1001.81 492.522H1001.8C1001.77 492.525 1001.75 492.528 1001.72 492.528C1001.7 492.531 1001.68 492.531 1001.66 492.535C1001.62 492.535 1001.58 492.538 1001.54 492.538H906.11C904.881 492.538 903.865 491.717 903.803 490.699C903.799 490.666 903.799 490.633 903.799 490.597V485.571C903.799 485.538 903.799 485.501 903.803 485.469C903.803 485.442 903.806 485.416 903.809 485.389C903.902 484.569 904.61 483.89 905.54 483.692C905.56 483.686 905.586 483.679 905.609 483.679C905.771 483.649 905.936 483.633 906.11 483.633H1001.54C1001.61 483.633 1001.68 483.636 1001.74 483.643C1001.77 483.646 1001.8 483.649 1001.83 483.653C1001.83 483.653 1001.83 483.653 1001.84 483.653H1001.84C1001.88 483.656 1001.91 483.662 1001.95 483.669C1002.09 483.689 1002.23 483.722 1002.37 483.768C1002.81 483.91 1003.19 484.167 1003.45 484.496C1003.7 484.8 1003.85 485.169 1003.85 485.571Z" fill="#FFB93E"/>
<path d="M956.988 492.538H905.863C904.762 492.538 903.859 491.717 903.803 490.699C903.799 490.666 903.799 490.633 903.799 490.597V485.571C903.799 485.538 903.799 485.501 903.803 485.469C903.803 485.442 903.806 485.416 903.809 485.389C903.892 484.549 904.551 483.864 905.411 483.682C905.438 483.672 905.467 483.669 905.497 483.666C905.616 483.646 905.738 483.633 905.863 483.633H950.708C950.714 483.656 950.721 483.676 950.724 483.699C951.449 486.309 953.117 489.891 956.965 492.525C956.971 492.528 956.981 492.531 956.988 492.538Z" fill="#FFA412"/>
<path d="M992.235 483.631H991.151V492.537H992.235V483.631Z" fill="#FFA412"/>
<path d="M988.566 483.631H987.481V492.537H988.566V483.631Z" fill="#FFA412"/>
<path d="M984.162 483.631H983.077V492.537H984.162V483.631Z" fill="#FFA412"/>
<path d="M977.413 483.631H976.329V492.537H977.413V483.631Z" fill="#FFA412"/>
<path d="M970.279 483.631H969.195V492.537H970.279V483.631Z" fill="#FFA412"/>
<path d="M959.338 483.631H958.253V492.537H959.338V483.631Z" fill="#FFA412"/>
<path d="M949.095 483.631H948.011V492.537H949.095V483.631Z" fill="#FFA412"/>
<path d="M939.947 483.631H938.862V492.536H939.947V483.631Z" fill="#FFA412"/>
<path d="M995.73 483.631H994.645V492.537H995.73V483.631Z" fill="#FFA412"/>
<path d="M998.041 483.631H996.956V492.537H998.041V483.631Z" fill="#FFA412"/>
<path d="M1000.27 483.631H999.185V492.537H1000.27V483.631Z" fill="#FFA412"/>
<path d="M1001.95 483.665V492.51C1001.82 492.53 1001.68 492.54 1001.54 492.54H1000.86V483.635H1001.54C1001.68 483.632 1001.82 483.645 1001.95 483.665Z" fill="#FFA412"/>
<path d="M1003.45 484.488V491.683C1003.19 492.009 1002.81 492.266 1002.37 492.408V483.763C1002.81 483.908 1003.19 484.162 1003.45 484.488Z" fill="#FFA412"/>
<path d="M1003.65 476.729V481.755C1003.65 482.157 1003.5 482.526 1003.26 482.836C1003.19 482.915 1003.12 482.994 1003.04 483.07C1002.8 483.284 1002.51 483.459 1002.17 483.564C1002.06 483.601 1001.95 483.627 1001.85 483.647H1001.84C1001.84 483.647 1001.84 483.647 1001.84 483.647C1001.81 483.653 1001.78 483.66 1001.75 483.663C1001.62 483.683 1001.48 483.696 1001.34 483.696H905.909C905.81 483.696 905.708 483.69 905.613 483.68C905.573 483.677 905.537 483.67 905.501 483.667C904.528 483.518 903.763 482.853 903.625 482.029C903.615 481.973 903.612 481.92 903.608 481.861C903.605 481.824 903.605 481.791 903.605 481.758V476.732C903.605 476.696 903.605 476.663 903.608 476.63C903.612 476.568 903.621 476.505 903.628 476.442C903.799 475.513 904.762 474.791 905.913 474.791H1001.34C1001.4 474.791 1001.47 474.794 1001.53 474.798C1001.54 474.798 1001.54 474.801 1001.55 474.801C1001.57 474.804 1001.59 474.804 1001.6 474.804C1001.63 474.808 1001.66 474.811 1001.69 474.818C1001.71 474.818 1001.73 474.821 1001.75 474.827C1001.89 474.847 1002.04 474.88 1002.17 474.926C1002.25 474.953 1002.33 474.982 1002.4 475.015H1002.41C1002.7 475.147 1002.96 475.332 1003.17 475.552C1003.2 475.585 1003.23 475.618 1003.25 475.651C1003.5 475.955 1003.65 476.327 1003.65 476.729Z" fill="#FFB93E"/>
<path d="M956.787 483.697H905.662C905.622 483.697 905.583 483.694 905.543 483.694C905.497 483.691 905.454 483.684 905.411 483.681C904.488 483.572 903.747 482.886 903.621 482.023C903.611 481.967 903.608 481.914 903.605 481.855C903.602 481.819 903.602 481.786 903.602 481.753V476.727C903.602 476.69 903.602 476.657 903.605 476.624C903.608 476.562 903.618 476.499 903.625 476.437C903.638 476.364 903.658 476.295 903.681 476.226C903.918 475.402 904.713 474.785 905.662 474.785H950.51C950.526 474.861 950.549 474.93 950.572 475.006C951.314 477.587 952.976 481.051 956.694 483.628C956.724 483.654 956.757 483.674 956.787 483.697Z" fill="#FFA412"/>
<path d="M992.038 474.788H990.953V483.693H992.038V474.788Z" fill="#FFA412"/>
<path d="M988.365 474.788H987.281V483.693H988.365V474.788Z" fill="#FFA412"/>
<path d="M983.961 474.788H982.876V483.693H983.961V474.788Z" fill="#FFA412"/>
<path d="M977.213 474.788H976.128V483.693H977.213V474.788Z" fill="#FFA412"/>
<path d="M970.079 474.788H968.994V483.693H970.079V474.788Z" fill="#FFA412"/>
<path d="M959.137 474.788H958.053V483.693H959.137V474.788Z" fill="#FFA412"/>
<path d="M948.895 474.788H947.81V483.693H948.895V474.788Z" fill="#FFA412"/>
<path d="M939.746 474.788H938.662V483.693H939.746V474.788Z" fill="#FFA412"/>
<path d="M995.532 474.788H994.448V483.693H995.532V474.788Z" fill="#FFA412"/>
<path d="M997.84 474.788H996.755V483.693H997.84V474.788Z" fill="#FFA412"/>
<path d="M1000.07 474.788H998.984V483.693H1000.07V474.788Z" fill="#FFA412"/>
<path d="M1001.75 474.821V483.664C1001.61 483.684 1001.48 483.693 1001.34 483.693H1000.66V474.788H1001.34C1001.48 474.788 1001.61 474.801 1001.75 474.821Z" fill="#FFA412"/>
<path d="M1003.25 475.646V482.841C1002.99 483.167 1002.61 483.424 1002.17 483.566V474.921C1002.61 475.066 1002.99 475.32 1003.25 475.646Z" fill="#FFA412"/>
<path d="M1008.58 468.042V473.071C1008.58 473.473 1008.43 473.845 1008.18 474.155C1007.92 474.482 1007.54 474.735 1007.1 474.88C1006.97 474.926 1006.82 474.956 1006.68 474.979C1006.55 474.999 1006.41 475.012 1006.27 475.012H910.841C910.459 475.012 910.096 474.933 909.777 474.791C909.144 474.514 908.679 473.994 908.56 473.384C908.55 473.341 908.547 473.302 908.544 473.259C908.54 473.229 908.537 473.203 908.537 473.173C908.534 473.14 908.534 473.107 908.534 473.071V468.042C908.534 468.009 908.534 467.972 908.537 467.939C908.54 467.877 908.547 467.814 908.557 467.752C908.728 466.822 909.691 466.1 910.841 466.1H1006.27C1006.41 466.1 1006.55 466.114 1006.68 466.133C1006.82 466.153 1006.97 466.186 1007.1 466.232C1007.55 466.374 1007.92 466.631 1008.18 466.961C1008.43 467.27 1008.58 467.639 1008.58 468.042Z" fill="#FFB93E"/>
<path d="M961.719 475.009H910.591C910.248 475.009 909.925 474.93 909.641 474.788C909.074 474.511 908.659 473.991 908.557 473.381C908.547 473.338 908.543 473.298 908.54 473.256C908.537 473.226 908.534 473.2 908.534 473.17C908.53 473.137 908.53 473.104 908.53 473.068V468.038C908.53 468.005 908.53 467.969 908.534 467.936C908.537 467.874 908.543 467.811 908.553 467.748C908.567 467.679 908.586 467.61 908.606 467.541C908.84 466.713 909.638 466.097 910.587 466.097H955.435C956.134 468.648 957.73 472.152 961.399 474.785C961.508 474.864 961.61 474.933 961.719 475.009Z" fill="#FFA412"/>
<path d="M996.967 466.103H995.882V475.009H996.967V466.103Z" fill="#FFA412"/>
<path d="M993.298 466.103H992.213V475.009H993.298V466.103Z" fill="#FFA412"/>
<path d="M988.893 466.103H987.809V475.009H988.893V466.103Z" fill="#FFA412"/>
<path d="M982.145 466.103H981.061V475.009H982.145V466.103Z" fill="#FFA412"/>
<path d="M975.008 466.103H973.923V475.009H975.008V466.103Z" fill="#FFA412"/>
<path d="M964.069 466.103H962.985V475.009H964.069V466.103Z" fill="#FFA412"/>
<path d="M953.827 466.103H952.742V475.009H953.827V466.103Z" fill="#FFA412"/>
<path d="M944.678 466.105H943.594V475.01H944.678V466.105Z" fill="#FFA412"/>
<path d="M1000.46 466.103H999.376V475.009H1000.46V466.103Z" fill="#FFA412"/>
<path d="M1002.77 466.103H1001.69V475.009H1002.77V466.103Z" fill="#FFA412"/>
<path d="M1005 466.103H1003.92V475.009H1005V466.103Z" fill="#FFA412"/>
<path d="M1006.68 466.134V474.977C1006.55 474.997 1006.41 475.007 1006.27 475.007H1005.59V466.101H1006.27C1006.41 466.101 1006.55 466.115 1006.68 466.134Z" fill="#FFA412"/>
<path d="M1008.19 466.957V474.152C1007.92 474.478 1007.55 474.735 1007.1 474.877V466.232C1007.54 466.377 1007.92 466.631 1008.19 466.957Z" fill="#FFA412"/>
<path d="M1016.38 459.133V464.162C1016.38 464.561 1016.23 464.93 1015.99 465.24L1015.98 465.243C1015.95 465.286 1015.91 465.322 1015.88 465.362C1015.73 465.517 1015.56 465.652 1015.37 465.761C1015.27 465.813 1015.17 465.866 1015.06 465.906C1015.06 465.906 1015.06 465.909 1015.06 465.909C1015.01 465.929 1014.95 465.952 1014.9 465.968C1014.76 466.014 1014.62 466.047 1014.48 466.067C1014.34 466.087 1014.21 466.097 1014.07 466.097H918.638C917.487 466.097 916.525 465.378 916.353 464.449C916.34 464.386 916.337 464.324 916.333 464.258C916.33 464.225 916.33 464.192 916.33 464.159V459.13C916.33 459.097 916.33 459.064 916.333 459.031C916.389 458.088 917.26 457.317 918.367 457.208C918.456 457.195 918.545 457.195 918.638 457.195H1014.07C1014.21 457.195 1014.34 457.208 1014.48 457.225C1014.62 457.248 1014.77 457.281 1014.9 457.327C1015.29 457.452 1015.62 457.663 1015.88 457.933C1015.91 457.973 1015.95 458.012 1015.98 458.052L1015.99 458.055C1016.23 458.365 1016.38 458.734 1016.38 459.133Z" fill="#FFB93E"/>
<path d="M969.519 466.1H918.391C917.441 466.1 916.64 465.484 916.409 464.66C916.386 464.591 916.37 464.525 916.357 464.452C916.343 464.39 916.34 464.327 916.337 464.261C916.333 464.228 916.333 464.195 916.333 464.162V459.133C916.333 459.1 916.333 459.067 916.337 459.034C916.386 458.091 917.164 457.32 918.15 457.211C918.229 457.198 918.311 457.198 918.394 457.198H963.242C963.242 457.201 963.245 457.208 963.245 457.211C963.96 459.828 965.629 463.447 969.519 466.1Z" fill="#FFA412"/>
<path d="M1004.77 457.195H1003.68V466.1H1004.77V457.195Z" fill="#FFA412"/>
<path d="M1001.09 457.195H1000.01V466.1H1001.09V457.195Z" fill="#FFA412"/>
<path d="M996.693 457.195H995.608V466.1H996.693V457.195Z" fill="#FFA412"/>
<path d="M989.944 457.195H988.86V466.1H989.944V457.195Z" fill="#FFA412"/>
<path d="M982.807 457.195H981.723V466.1H982.807V457.195Z" fill="#FFA412"/>
<path d="M971.869 457.195H970.785V466.1H971.869V457.195Z" fill="#FFA412"/>
<path d="M961.623 457.195H960.538V466.1H961.623V457.195Z" fill="#FFA412"/>
<path d="M952.478 457.195H951.394V466.1H952.478V457.195Z" fill="#FFA412"/>
<path d="M1008.26 457.195H1007.18V466.1H1008.26V457.195Z" fill="#FFA412"/>
<path d="M1010.57 457.195H1009.48V466.1H1010.57V457.195Z" fill="#FFA412"/>
<path d="M1012.8 457.195H1011.72V466.1H1012.8V457.195Z" fill="#FFA412"/>
<path d="M1014.48 457.225V466.071C1014.34 466.091 1014.21 466.1 1014.07 466.1H1013.39V457.195H1014.07C1014.21 457.195 1014.34 457.205 1014.48 457.225Z" fill="#FFA412"/>
<path d="M1015.98 458.052V465.246C1015.72 465.573 1015.34 465.83 1014.9 465.971V457.327C1015.34 457.468 1015.72 457.725 1015.98 458.052Z" fill="#FFA412"/>
<path d="M1003.85 450.241V455.27C1003.85 455.672 1003.7 456.042 1003.45 456.351C1003.19 456.681 1002.81 456.935 1002.37 457.08C1002.23 457.126 1002.09 457.159 1001.95 457.179C1001.9 457.185 1001.86 457.192 1001.81 457.195H1001.8C1001.77 457.202 1001.74 457.202 1001.71 457.205C1001.69 457.205 1001.67 457.208 1001.65 457.208C1001.61 457.208 1001.58 457.212 1001.54 457.212H906.11C905.283 457.212 904.551 456.842 904.145 456.289C903.944 456.022 903.822 455.709 903.803 455.373C903.799 455.336 903.799 455.303 903.799 455.27V450.241C903.799 450.205 903.799 450.172 903.803 450.139C903.852 449.315 904.531 448.619 905.438 448.385C905.649 448.329 905.876 448.3 906.11 448.3H1001.54C1001.58 448.3 1001.62 448.303 1001.66 448.303C1001.68 448.303 1001.7 448.306 1001.72 448.31C1001.8 448.313 1001.87 448.323 1001.95 448.333C1002.09 448.353 1002.23 448.386 1002.37 448.432C1002.44 448.451 1002.5 448.478 1002.57 448.507H1002.57C1002.82 448.613 1003.05 448.755 1003.24 448.929C1003.24 448.933 1003.25 448.936 1003.25 448.943C1003.26 448.952 1003.27 448.956 1003.28 448.966C1003.34 449.025 1003.4 449.091 1003.46 449.16C1003.7 449.467 1003.85 449.839 1003.85 450.241Z" fill="#FFB93E"/>
<path d="M956.988 457.212H905.863C905.144 457.212 904.508 456.859 904.139 456.332C903.941 456.051 903.819 455.725 903.803 455.373C903.799 455.336 903.799 455.303 903.799 455.27V450.241C903.799 450.205 903.799 450.172 903.803 450.139C903.852 449.252 904.541 448.517 905.444 448.343C905.58 448.316 905.718 448.3 905.863 448.3H950.708C950.724 448.369 950.747 448.438 950.767 448.504C951.509 451.105 953.187 454.601 956.965 457.192C956.971 457.198 956.981 457.205 956.988 457.212Z" fill="#FFA412"/>
<path d="M992.235 448.305H991.151V457.21H992.235V448.305Z" fill="#FFA412"/>
<path d="M988.566 448.305H987.481V457.21H988.566V448.305Z" fill="#FFA412"/>
<path d="M984.162 448.305H983.077V457.21H984.162V448.305Z" fill="#FFA412"/>
<path d="M977.413 448.305H976.329V457.21H977.413V448.305Z" fill="#FFA412"/>
<path d="M970.279 448.305H969.195V457.21H970.279V448.305Z" fill="#FFA412"/>
<path d="M959.338 448.305H958.253V457.21H959.338V448.305Z" fill="#FFA412"/>
<path d="M949.095 448.305H948.011V457.21H949.095V448.305Z" fill="#FFA412"/>
<path d="M939.947 448.304H938.862V457.21H939.947V448.304Z" fill="#FFA412"/>
<path d="M995.73 448.305H994.645V457.21H995.73V448.305Z" fill="#FFA412"/>
<path d="M998.041 448.305H996.956V457.21H998.041V448.305Z" fill="#FFA412"/>
<path d="M1000.27 448.305H999.185V457.21H1000.27V448.305Z" fill="#FFA412"/>
<path d="M1001.95 448.334V457.18C1001.82 457.2 1001.68 457.21 1001.54 457.21H1000.86V448.305H1001.54C1001.68 448.305 1001.82 448.315 1001.95 448.334Z" fill="#FFA412"/>
<path d="M1003.45 449.161V456.356C1003.19 456.682 1002.81 456.939 1002.37 457.081V448.436C1002.81 448.578 1003.19 448.835 1003.45 449.161Z" fill="#FFA412"/>
<path d="M1010.87 441.541V446.57C1010.87 446.972 1010.72 447.341 1010.47 447.651C1010.21 447.977 1009.83 448.235 1009.39 448.376C1009.25 448.422 1009.11 448.455 1008.96 448.475C1008.83 448.495 1008.7 448.505 1008.55 448.505H913.126C912.757 448.505 912.404 448.432 912.094 448.297C911.398 448.004 910.901 447.424 910.825 446.745C910.822 446.718 910.818 446.692 910.818 446.666C910.818 446.633 910.815 446.6 910.815 446.567V441.538C910.815 441.505 910.815 441.472 910.818 441.439C910.874 440.496 911.748 439.725 912.852 439.613C912.941 439.603 913.034 439.6 913.126 439.6H1008.55C1008.69 439.6 1008.83 439.609 1008.96 439.629C1009.11 439.652 1009.25 439.685 1009.39 439.728C1009.83 439.873 1010.21 440.127 1010.47 440.453C1010.72 440.77 1010.87 441.139 1010.87 441.541Z" fill="#FFB93E"/>
<path d="M964.003 448.507H912.879C912.549 448.507 912.236 448.434 911.959 448.299C911.336 448.006 910.894 447.426 910.828 446.747C910.825 446.721 910.822 446.694 910.822 446.668C910.822 446.635 910.818 446.602 910.818 446.569V441.54C910.818 441.507 910.818 441.474 910.822 441.441C910.871 440.498 911.652 439.727 912.638 439.615C912.717 439.605 912.8 439.602 912.882 439.602H957.73C957.73 439.605 957.733 439.612 957.733 439.615C958.432 442.169 960.038 445.669 963.713 448.303C963.806 448.372 963.905 448.441 964.003 448.507Z" fill="#FFA412"/>
<path d="M999.255 439.602H998.17V448.507H999.255V439.602Z" fill="#FFA412"/>
<path d="M995.582 439.602H994.497V448.507H995.582V439.602Z" fill="#FFA412"/>
<path d="M991.177 439.602H990.093V448.507H991.177V439.602Z" fill="#FFA412"/>
<path d="M984.429 439.602H983.345V448.507H984.429V439.602Z" fill="#FFA412"/>
<path d="M977.295 439.602H976.21V448.507H977.295V439.602Z" fill="#FFA412"/>
<path d="M966.353 439.602H965.269V448.507H966.353V439.602Z" fill="#FFA412"/>
<path d="M956.111 439.602H955.026V448.507H956.111V439.602Z" fill="#FFA412"/>
<path d="M946.966 439.603H945.881V448.508H946.966V439.603Z" fill="#FFA412"/>
<path d="M1002.75 439.602H1001.66V448.507H1002.75V439.602Z" fill="#FFA412"/>
<path d="M1005.06 439.602H1003.97V448.507H1005.06V439.602Z" fill="#FFA412"/>
<path d="M1007.28 439.602H1006.2V448.507H1007.28V439.602Z" fill="#FFA412"/>
<path d="M1008.96 439.632V448.474C1008.83 448.494 1008.7 448.504 1008.55 448.504H1007.88V439.599H1008.55C1008.7 439.602 1008.83 439.612 1008.96 439.632Z" fill="#FFA412"/>
<path d="M1010.47 440.459V447.653C1010.21 447.98 1009.83 448.237 1009.38 448.378V439.734C1009.83 439.875 1010.21 440.132 1010.47 440.459Z" fill="#FFA412"/>
<path d="M1013.85 432.648V437.678C1013.85 438.08 1013.71 438.449 1013.46 438.759C1013.19 439.085 1012.82 439.342 1012.37 439.484C1012.24 439.53 1012.1 439.563 1011.95 439.583C1011.9 439.589 1011.86 439.596 1011.81 439.599C1011.79 439.603 1011.77 439.603 1011.74 439.606C1011.72 439.609 1011.69 439.609 1011.66 439.609C1011.62 439.612 1011.58 439.612 1011.54 439.612H916.113C914.883 439.612 913.868 438.795 913.805 437.773C913.805 437.74 913.802 437.708 913.802 437.675V432.645C913.802 432.612 913.802 432.579 913.805 432.546C913.868 431.528 914.88 430.707 916.113 430.707H1011.54C1011.68 430.707 1011.82 430.717 1011.95 430.737C1012.1 430.76 1012.24 430.793 1012.37 430.836C1012.81 430.981 1013.19 431.235 1013.46 431.561C1013.71 431.874 1013.85 432.246 1013.85 432.648Z" fill="#FFB93E"/>
<path d="M966.99 439.618H915.865C914.767 439.618 913.864 438.8 913.805 437.779C913.805 437.746 913.801 437.713 913.801 437.68V432.65C913.801 432.617 913.801 432.584 913.805 432.551C913.861 431.533 914.767 430.712 915.865 430.712H960.713C961.428 433.329 963.093 436.948 966.97 439.604C966.977 439.608 966.983 439.614 966.99 439.618Z" fill="#FFA412"/>
<path d="M1002.24 430.709H1001.16V439.615H1002.24V430.709Z" fill="#FFA412"/>
<path d="M998.568 430.709H997.484V439.615H998.568V430.709Z" fill="#FFA412"/>
<path d="M994.164 430.709H993.08V439.615H994.164V430.709Z" fill="#FFA412"/>
<path d="M987.416 430.709H986.331V439.615H987.416V430.709Z" fill="#FFA412"/>
<path d="M980.282 430.709H979.197V439.615H980.282V430.709Z" fill="#FFA412"/>
<path d="M969.34 430.709H968.255V439.615H969.34V430.709Z" fill="#FFA412"/>
<path d="M959.097 430.709H958.013V439.615H959.097V430.709Z" fill="#FFA412"/>
<path d="M949.952 430.709H948.868V439.615H949.952V430.709Z" fill="#FFA412"/>
<path d="M1005.74 430.709H1004.65V439.615H1005.74V430.709Z" fill="#FFA412"/>
<path d="M1008.04 430.709H1006.96V439.615H1008.04V430.709Z" fill="#FFA412"/>
<path d="M1010.27 430.709H1009.19V439.615H1010.27V430.709Z" fill="#FFA412"/>
<path d="M1011.95 430.739V439.585C1011.82 439.605 1011.68 439.615 1011.54 439.615H1010.87V430.709H1011.54C1011.68 430.709 1011.82 430.719 1011.95 430.739Z" fill="#FFA412"/>
<path d="M1013.46 431.563V438.758C1013.19 439.084 1012.82 439.341 1012.37 439.483V430.838C1012.82 430.983 1013.19 431.24 1013.46 431.563Z" fill="#FFA412"/>
<path opacity="0.5" d="M947.682 483.629C947.679 483.652 947.679 483.675 947.675 483.695C947.507 486.685 947.029 489.641 946.245 492.521C946.245 492.525 946.241 492.531 946.241 492.538C946.129 492.956 946.007 493.372 945.882 493.787C945.084 496.417 944.029 498.974 942.737 501.43C941.112 504.515 939.111 507.435 936.74 510.114C936.678 510.19 936.612 510.263 936.546 510.335C933.589 513.647 930.081 516.587 926.062 519.023C925.215 519.537 924.348 520.031 923.458 520.499C922.855 520.816 922.251 521.112 921.642 521.402C921.061 521.738 920.445 522.028 919.868 522.384C918.187 523.413 916.087 524.23 913.805 524.879V520.964C913.805 520.931 913.809 520.898 913.809 520.865C913.812 520.799 913.822 520.736 913.828 520.674C913.842 520.601 913.861 520.529 913.884 520.46C914.122 519.636 914.92 519.026 915.869 519.026H905.666C904.72 519.026 903.922 518.41 903.685 517.586C903.662 517.517 903.642 517.444 903.629 517.375C903.619 517.312 903.612 517.25 903.609 517.187C903.605 517.154 903.605 517.121 903.605 517.085V512.059C903.605 512.026 903.605 511.989 903.609 511.957C903.612 511.894 903.622 511.831 903.629 511.769C903.642 511.696 903.662 511.627 903.685 511.554C903.922 510.731 904.716 510.117 905.666 510.117H909.648C909.081 509.841 908.666 509.32 908.564 508.71C908.554 508.667 908.55 508.628 908.547 508.585C908.544 508.559 908.541 508.529 908.541 508.499C908.537 508.466 908.537 508.433 908.537 508.4V503.371C908.537 503.338 908.537 503.305 908.541 503.272C908.544 503.21 908.55 503.144 908.56 503.084C908.574 503.015 908.593 502.946 908.613 502.877C908.847 502.049 909.645 501.433 910.594 501.433H912.882C911.936 501.433 911.138 500.82 910.898 499.996C910.875 499.927 910.855 499.854 910.842 499.782C910.832 499.719 910.825 499.657 910.822 499.594V494.364C910.875 493.421 911.653 492.65 912.638 492.541H905.867C904.766 492.541 903.863 491.72 903.807 490.702C903.803 490.669 903.803 490.636 903.803 490.6V485.574C903.803 485.541 903.803 485.505 903.807 485.472C903.807 485.445 903.81 485.419 903.813 485.393C903.896 484.552 904.555 483.867 905.415 483.685C904.492 483.577 903.751 482.891 903.625 482.028C903.615 481.972 903.612 481.919 903.609 481.86C903.605 481.823 903.605 481.79 903.605 481.757V476.731C903.605 476.695 903.605 476.662 903.609 476.629C903.612 476.567 903.622 476.504 903.629 476.441C903.642 476.369 903.662 476.3 903.685 476.23C903.922 475.406 904.716 474.79 905.666 474.79H909.648C909.081 474.513 908.666 473.993 908.564 473.383C908.554 473.34 908.55 473.3 908.547 473.258C908.544 473.228 908.541 473.202 908.541 473.172C908.537 473.139 908.537 473.106 908.537 473.07V468.04C908.537 468.007 908.537 467.971 908.541 467.938C908.544 467.876 908.55 467.813 908.56 467.75C908.574 467.681 908.593 467.612 908.613 467.543C908.847 466.715 909.645 466.099 910.594 466.099H918.394C917.445 466.099 916.644 465.483 916.413 464.659C916.39 464.59 916.373 464.524 916.36 464.451C916.347 464.389 916.344 464.326 916.34 464.26C916.337 464.227 916.337 464.194 916.337 464.161V459.132C916.337 459.099 916.337 459.066 916.34 459.033C916.39 458.09 917.168 457.319 918.154 457.21H905.87C905.152 457.21 904.515 456.858 904.146 456.33L904.153 456.284L905.445 448.388L905.452 448.341L907.294 437.073C909.431 437.36 911.547 437.785 913.617 438.345C913.739 438.378 913.858 438.411 913.98 438.444C913.987 438.448 913.993 438.451 914.003 438.454C915.21 438.79 916.403 439.173 917.577 439.601C917.59 439.604 917.597 439.608 917.61 439.614C923.016 441.585 928.057 444.508 932.425 448.302C932.504 448.368 932.58 448.437 932.656 448.506C934.927 450.5 937.014 452.735 938.87 455.197C939.242 455.684 939.602 456.182 939.951 456.69C940.067 456.858 940.185 457.023 940.294 457.194C940.301 457.197 940.304 457.204 940.304 457.207C940.868 458.038 941.402 458.891 941.909 459.768C943.106 461.834 944.108 463.95 944.929 466.099C946.024 468.95 946.789 471.86 947.243 474.787C947.26 474.863 947.267 474.932 947.28 475.008C947.705 477.885 947.837 480.772 947.682 483.629Z" fill="#E2810E"/>
<path d="M893.943 525.779C919.785 523.722 939.065 501.11 937.007 475.275C934.949 449.44 912.331 430.165 886.489 432.223C860.647 434.281 841.366 456.892 843.425 482.727C845.483 508.562 868.101 527.837 893.943 525.779Z" fill="#E2810E"/>
<path d="M911.049 521.083C910.472 521.435 909.882 521.778 909.286 522.108C909.084 522.22 908.88 522.329 908.679 522.434C908.217 522.681 907.753 522.919 907.288 523.149C884.936 534.124 857.67 525.7 845.518 503.665C833.927 482.644 840.158 456.611 859.176 442.94C860.693 441.849 862.288 440.837 863.966 439.914C864.566 439.582 865.176 439.265 865.783 438.965C866.373 438.672 866.973 438.389 867.573 438.122C869.409 437.304 871.278 436.612 873.164 436.049C875.966 435.205 878.811 434.635 881.663 434.335C890.504 433.399 899.402 435.014 907.288 438.87C915.658 442.96 922.894 449.578 927.734 458.354C939.918 480.456 932.412 508.094 911.049 521.083Z" fill="#FFB93E"/>
<path d="M886.954 523.561C883.027 523.561 879.081 523.008 875.208 521.887C864.414 518.766 855.487 511.631 850.061 501.796C844.638 491.961 843.368 480.601 846.49 469.814C849.612 459.023 856.75 450.098 866.587 444.677C886.898 433.484 912.529 440.897 923.725 461.202C934.92 481.507 927.506 507.132 907.195 518.324C900.892 521.795 893.959 523.561 886.954 523.561ZM886.825 440.59C880.149 440.59 873.385 442.225 867.137 445.666C857.564 450.942 850.621 459.627 847.582 470.127C844.545 480.624 845.778 491.678 851.053 501.246C856.331 510.817 865.021 517.761 875.521 520.796C886.021 523.832 897.078 522.599 906.651 517.326C926.412 506.436 933.628 481.501 922.736 461.746C915.285 448.233 901.265 440.59 886.825 440.59Z" fill="#FFA412"/>
<path d="M907.578 485.58C907.485 485.349 907.386 485.125 907.288 484.905C906.526 483.23 905.577 481.876 904.439 480.838C903.153 479.664 901.66 478.788 899.959 478.201C898.258 477.614 896.359 477.258 894.266 477.13C892.169 477.001 889.891 476.972 887.425 477.041C885.902 477.087 884.6 477.061 883.519 476.962C882.441 476.863 881.521 476.662 880.769 476.362C880.014 476.059 879.404 475.643 878.933 475.119C878.461 474.595 878.076 473.953 877.766 473.198C877.456 472.44 877.281 471.689 877.235 470.944C877.189 470.199 877.301 469.494 877.568 468.821C877.835 468.152 878.27 467.533 878.877 466.966C879.48 466.399 880.278 465.911 881.27 465.509C883.1 464.764 884.811 464.784 886.397 465.558C887.982 466.336 889.275 467.951 890.273 470.41L899.837 466.527C899.003 464.481 897.961 462.75 896.705 461.337C895.452 459.926 894.038 458.835 892.466 458.064C890.893 457.296 889.182 456.844 887.329 456.713C885.48 456.581 883.555 456.778 881.557 457.302L878.847 450.635L873.553 452.784L876.223 459.359C874.314 460.351 872.692 461.501 871.364 462.816C870.035 464.131 869.013 465.555 868.301 467.084C867.586 468.617 867.213 470.225 867.177 471.909C867.141 473.593 867.477 475.307 868.186 477.047C869 479.055 870.052 480.646 871.337 481.816C872.623 482.986 874.116 483.863 875.814 484.437C877.512 485.013 879.411 485.356 881.511 485.468C883.611 485.58 885.899 485.58 888.368 485.462C889.799 485.379 891.045 485.389 892.096 485.488C893.151 485.584 894.061 485.788 894.829 486.094C895.598 486.404 896.234 486.836 896.745 487.393C897.252 487.95 897.684 488.658 898.034 489.519C898.344 490.277 898.495 491.031 898.492 491.786C898.489 492.541 898.321 493.259 897.981 493.945C897.645 494.63 897.137 495.266 896.461 495.85C895.785 496.433 894.932 496.934 893.893 497.356C892.99 497.722 892.054 497.966 891.088 498.084C890.118 498.203 889.176 498.107 888.256 497.801C887.336 497.494 886.472 496.937 885.671 496.13C884.867 495.326 884.171 494.192 883.581 492.739L874.021 496.621C875.016 499.08 876.272 501.028 877.782 502.468C879.292 503.908 880.944 504.94 882.737 505.556C884.531 506.176 886.406 506.449 888.365 506.367C890.323 506.288 892.258 505.968 894.163 505.408L896.633 511.492L901.894 509.356L899.412 503.242C901.321 502.25 902.959 501.11 904.321 499.815C905.583 498.618 906.569 497.33 907.284 495.945C907.344 495.833 907.4 495.721 907.452 495.609C908.174 494.1 908.56 492.501 908.606 490.811C908.656 489.126 908.313 487.383 907.578 485.58Z" fill="#FFA412"/>
<path d="M983.655 314.861H819.561V317.231H983.655V314.861Z" fill="#CCD8FF"/>
<path d="M985.334 317.233H817.876V319.603H985.334V317.233Z" fill="#A9BAFF"/>
<path d="M987.644 319.601H815.568V321.971H987.644V319.601Z" fill="#8C9DF4"/>
<path d="M976.848 224.219H823.384V314.86H976.848V224.219Z" fill="#8C9DF4"/>
<path d="M987.268 225.95H814.286L902.35 181.325L987.268 225.95Z" fill="#CCD8FF"/>
<path d="M840.54 219.993L961.013 219.74L902.29 189.211L840.54 219.993Z" fill="#6F84DD"/>
<path d="M983.596 225.95H818.799V229.77H983.596V225.95Z" fill="#8C9DF4"/>
<path d="M847.268 224.219H831.036V230.076H847.268V224.219Z" fill="#CCD8FF"/>
<path d="M843.625 230.077H834.678V314.86H843.625V230.077Z" fill="#CCD8FF"/>
<path d="M882.345 224.219H866.112V230.076H882.345V224.219Z" fill="#CCD8FF"/>
<path d="M878.702 230.077H869.755V314.86H878.702V230.077Z" fill="#CCD8FF"/>
<path d="M937.482 224.219H921.249V230.076H937.482V224.219Z" fill="#CCD8FF"/>
<path d="M933.839 230.077H924.892V314.86H933.839V230.077Z" fill="#CCD8FF"/>
<path d="M970.511 224.219H954.278V230.076H970.511V224.219Z" fill="#CCD8FF"/>
<path d="M966.869 230.077H957.921V314.86H966.869V230.077Z" fill="#CCD8FF"/>
<path d="M904.252 208.575C904.255 208.302 904.222 208.061 904.146 207.853C904.074 207.646 903.948 207.455 903.777 207.283C903.606 207.112 903.381 206.954 903.108 206.805C902.834 206.657 902.498 206.515 902.102 206.37C901.42 206.12 900.803 205.859 900.246 205.589C899.689 205.319 899.218 205.009 898.822 204.656C898.43 204.307 898.126 203.898 897.912 203.437C897.698 202.972 897.596 202.422 897.606 201.786C897.612 201.235 897.718 200.731 897.922 200.28C898.123 199.828 898.41 199.436 898.779 199.103C899.148 198.77 899.587 198.503 900.098 198.299C900.609 198.095 901.179 197.969 901.809 197.92L901.839 195.837L903.517 195.86L903.487 197.973C904.087 198.058 904.631 198.226 905.115 198.474C905.6 198.721 906.012 199.037 906.348 199.426C906.685 199.815 906.942 200.27 907.12 200.797C907.298 201.321 907.38 201.911 907.374 202.56L904.344 202.517C904.354 201.74 904.192 201.153 903.849 200.761C903.51 200.369 903.048 200.171 902.468 200.161C902.155 200.158 901.881 200.197 901.654 200.28C901.426 200.365 901.235 200.481 901.087 200.632C900.939 200.784 900.826 200.962 900.754 201.169C900.681 201.377 900.642 201.601 900.639 201.839C900.635 202.079 900.668 202.297 900.734 202.491C900.8 202.686 900.919 202.87 901.087 203.038C901.255 203.206 901.479 203.364 901.763 203.516C902.043 203.668 902.392 203.823 902.811 203.984C903.484 204.248 904.1 204.515 904.651 204.788C905.201 205.062 905.676 205.375 906.068 205.731C906.46 206.083 906.764 206.492 906.978 206.957C907.192 207.422 907.295 207.969 907.285 208.598C907.275 209.168 907.169 209.682 906.965 210.131C906.76 210.582 906.47 210.971 906.104 211.297C905.735 211.624 905.293 211.884 904.776 212.078C904.258 212.273 903.685 212.395 903.055 212.444L903.025 214.382L901.357 214.359L901.387 212.431C900.807 212.365 900.25 212.23 899.709 212.026C899.172 211.825 898.693 211.535 898.278 211.162C897.863 210.79 897.536 210.322 897.292 209.762C897.048 209.201 896.933 208.529 896.943 207.751L899.973 207.794C899.966 208.255 900.025 208.641 900.151 208.951C900.276 209.261 900.444 209.511 900.658 209.699C900.873 209.887 901.117 210.022 901.393 210.098C901.667 210.177 901.951 210.216 902.237 210.223C902.567 210.226 902.854 210.19 903.104 210.108C903.355 210.025 903.563 209.913 903.734 209.765C903.906 209.617 904.031 209.442 904.12 209.241C904.202 209.036 904.248 208.812 904.252 208.575Z" fill="#CCD8FF"/>
<path d="M911.214 314.859H888.941V290.533C888.941 284.765 893.619 280.089 899.389 280.089H901.37C906.806 280.089 911.214 284.495 911.214 289.93V314.859Z" fill="#6F84DD"/>
<path d="M892.74 262.239H882.227V250.757C882.227 248.034 884.435 245.826 887.158 245.826H888.095C890.659 245.826 892.74 247.906 892.74 250.47V262.239Z" fill="#6F84DD"/>
<path d="M861.945 262.239H851.432V250.757C851.432 248.035 853.641 245.826 856.364 245.826H857.3C859.865 245.826 861.945 247.906 861.945 250.47V262.239Z" fill="#6F84DD"/>
<path d="M861.945 297.474H851.432V285.992C851.432 283.269 853.641 281.061 856.364 281.061H857.3C859.865 281.061 861.945 283.141 861.945 285.705V297.474Z" fill="#6F84DD"/>
<path d="M951.137 262.239H940.624V250.757C940.624 248.034 942.832 245.826 945.555 245.826H946.492C949.056 245.826 951.137 247.906 951.137 250.47V262.239Z" fill="#6F84DD"/>
<path d="M951.137 297.474H940.624V285.992C940.624 283.269 942.832 281.061 945.555 281.061H946.492C949.056 281.061 951.137 283.141 951.137 285.705V297.474Z" fill="#6F84DD"/>
<path d="M919.32 262.239H908.807V250.757C908.807 248.034 911.016 245.826 913.739 245.826H914.675C917.24 245.826 919.32 247.906 919.32 250.47V262.239Z" fill="#6F84DD"/>
</g>
<defs>
<filter id="filter0_d_997_28258" x="531.714" y="-179.667" width="1083.71" height="749.228" filterUnits="userSpaceOnUse" color-interpolation-filters="sRGB">
<feFlood flood-opacity="0" result="BackgroundImageFix"/>
<feColorMatrix in="SourceAlpha" type="matrix" values="0 0 0 0 0 0 0 0 0 0 0 0 0 0 0 0 0 0 127 0" result="hardAlpha"/>
<feOffset/>
<feGaussianBlur stdDeviation="2"/>
<feComposite in2="hardAlpha" operator="out"/>
<feColorMatrix type="matrix" values="0 0 0 0 0 0 0 0 0 0 0 0 0 0 0 0 0 0 0.25 0"/>
<feBlend mode="normal" in2="BackgroundImageFix" result="effect1_dropShadow_997_28258"/>
<feBlend mode="normal" in="SourceGraphic" in2="effect1_dropShadow_997_28258" result="shape"/>
</filter>
<clipPath id="clip0_997_28258">
<rect width="1470" height="527" fill="white"/>
</clipPath>
</defs>
</svg>
