<svg width="22" height="12" viewBox="0 0 22 12" fill="none" xmlns="http://www.w3.org/2000/svg">
<path d="M2 12C1.45 12 0.979002 11.804 0.587002 11.412C0.195002 11.02 -0.000664969 10.5493 1.69779e-06 10C1.69779e-06 9.45 0.196002 8.979 0.588002 8.587C0.980002 8.195 1.45067 7.99934 2 8H2.263C2.33767 8 2.41667 8.01667 2.5 8.05L7.05 3.5C7.01667 3.41667 7 3.33734 7 3.262V3C7 2.45 7.196 1.979 7.588 1.587C7.98 1.195 8.45067 0.999335 9 1C9.55 1 10.021 1.196 10.413 1.588C10.805 1.98 11.0007 2.45067 11 3C11 3.03333 10.9833 3.2 10.95 3.5L13.5 6.05C13.5833 6.01667 13.6627 6 13.738 6H14.263C14.3377 6 14.4167 6.01667 14.5 6.05L18.05 2.5C18.0167 2.41667 18 2.33734 18 2.262V2C18 1.45 18.196 0.979002 18.588 0.587002C18.98 0.195002 19.4507 -0.000664969 20 1.69779e-06C20.55 1.69779e-06 21.021 0.196001 21.413 0.588001C21.805 0.980001 22.0007 1.45067 22 2C22 2.55 21.804 3.021 21.412 3.413C21.02 3.805 20.5493 4.00067 20 4H19.737C19.6623 4 19.5833 3.98333 19.5 3.95L15.95 7.5C15.9833 7.58334 16 7.66267 16 7.738V8C16 8.55 15.804 9.021 15.412 9.413C15.02 9.805 14.5493 10.0007 14 10C13.45 10 12.979 9.804 12.587 9.412C12.195 9.02 11.9993 8.54934 12 8V7.737C12 7.66234 12.0167 7.58334 12.05 7.5L9.5 4.95C9.41667 4.98334 9.33734 5 9.262 5H9C8.96667 5 8.8 4.98334 8.5 4.95L3.95 9.5C3.98333 9.58333 4 9.66267 4 9.738V10C4 10.55 3.804 11.021 3.412 11.413C3.02 11.805 2.54934 12.0007 2 12Z" fill="#4C4C4C"/>
</svg>
