<svg width="23" height="23" viewBox="0 0 23 23" fill="none" xmlns="http://www.w3.org/2000/svg">
    <path
            d="M9.13333 16.45L15.7333 11.5L9.13333 6.55V16.45ZM11.3333 0.5C5.26133 0.5 0.333328 5.428 0.333328 11.5C0.333328 17.572 5.26133 22.5 11.3333 22.5C17.4053 22.5 22.3333 17.572 22.3333 11.5C22.3333 5.428 17.4053 0.5 11.3333 0.5ZM11.3333 20.3C6.48233 20.3 2.53333 16.351 2.53333 11.5C2.53333 6.649 6.48233 2.7 11.3333 2.7C16.1843 2.7 20.1333 6.649 20.1333 11.5C20.1333 16.351 16.1843 20.3 11.3333 20.3Z"
            />
</svg>