<svg width="12" height="21" viewBox="0 0 12 21" fill="none" xmlns="http://www.w3.org/2000/svg">
<path d="M12 14.1467C12 10.4192 8.93057 9.99438 6.46447 9.65354C3.7767 9.282 2.25579 8.95892 2.25579 6.657C2.25579 4.725 4.29151 4.03846 6.03492 4.03846C6.90373 4.01054 7.76678 4.18845 8.55289 4.5575C9.08945 4.8094 9.57968 5.14543 10.0056 5.55118C10.3328 5.86289 10.8452 5.92908 11.1976 5.64615C11.5425 5.36922 11.6039 4.86259 11.2936 4.54738C10.8349 4.08145 10.3119 3.68074 9.73932 3.35782C9.19164 3.04895 8.60588 2.81539 7.9981 2.66241C7.50782 2.539 7.12789 2.12049 7.12789 1.61492V0.812017C7.12789 0.363552 6.76434 0 6.31587 0C5.86741 0 5.50386 0.363553 5.50386 0.812018V1.49955C5.50386 2.02837 5.08934 2.45756 4.56912 2.55252C2.16427 2.99153 0.63175 4.53026 0.63175 6.657C0.63175 10.4774 3.74178 10.9079 6.24036 11.2528C8.88185 11.6187 10.376 11.9328 10.376 14.1467C10.376 16.5957 7.83191 16.9615 6.31587 16.9615C3.9832 16.9615 2.77943 16.4154 1.8087 15.4483C1.48813 15.129 0.978498 15.0677 0.625663 15.351C0.277639 15.6305 0.212564 16.1406 0.523032 16.4613C1.0723 17.0285 1.71772 17.4983 2.43172 17.8479C3.08503 18.1679 3.78346 18.3812 4.50031 18.4819C5.04979 18.559 5.50386 19.0004 5.50386 19.5553V20.188C5.50386 20.6364 5.86741 21 6.31587 21C6.76434 21 7.12789 20.6364 7.12789 20.188V19.4627C7.12789 18.9418 7.53047 18.5159 8.04205 18.4177C10.5212 17.9418 12 16.3968 12 14.1467Z" fill="#4C4C4C"/>
</svg>
