<svg width="20" height="20" viewBox="0 0 20 20" fill="none" xmlns="http://www.w3.org/2000/svg">
    <path d="M2.10526 20C1.52632 20 1.03053 19.804 0.617896 19.412C0.205265 19.02 -0.000699967 18.5493 1.78715e-06 18V2C1.78715e-06 1.45 0.206317 0.979002 0.618949 0.587002C1.03158 0.195002 1.52702 -0.000664969 2.10526 1.69779e-06H9.6579C9.9386 1.69779e-06 10.2063 0.0500018 10.4611 0.150002C10.7158 0.250002 10.9393 0.391668 11.1316 0.575002L16.2368 5.425C16.4298 5.60834 16.579 5.821 16.6842 6.063C16.7895 6.305 16.8421 6.559 16.8421 6.825V9.1L8.42106 17.075V20H2.10526ZM11.0526 20C10.9123 20 10.7895 19.95 10.6842 19.85C10.5789 19.75 10.5263 19.6333 10.5263 19.5V18.3C10.5263 18.1667 10.5572 18.0333 10.6189 17.9C10.6807 17.7667 10.7551 17.6583 10.8421 17.575L15.9474 12.7L18.2105 14.8L13.0789 19.7C12.9912 19.8 12.8772 19.875 12.7368 19.925C12.5965 19.975 12.4561 20 12.3158 20H11.0526ZM18.9737 14.1L16.7368 11.975L17.4737 11.275C17.6842 11.075 17.9386 10.975 18.2368 10.975C18.5351 10.975 18.7807 11.075 18.9737 11.275L19.7105 12C19.9035 12.2 20 12.4377 20 12.713C20 12.9883 19.9035 13.2173 19.7105 13.4L18.9737 14.1ZM10.5263 7H14.7368L9.47369 2V6C9.47369 6.28334 9.57474 6.521 9.77684 6.713C9.97895 6.905 10.2288 7.00067 10.5263 7Z"
          />
</svg>
