<svg width="32" height="32" viewBox="0 0 32 32" fill="none" xmlns="http://www.w3.org/2000/svg">
<path fill-rule="evenodd" clip-rule="evenodd" d="M16 31.5C7.43959 31.5 0.5 24.5604 0.5 16C0.5 7.43959 7.43959 0.5 16 0.5C24.5604 0.5 31.5 7.43959 31.5 16C31.5 24.5604 24.5604 31.5 16 31.5ZM16 32C7.16344 32 0 24.8366 0 16C0 7.16344 7.16344 0 16 0C24.8366 0 32 7.16344 32 16C32 24.8366 24.8366 32 16 32Z" fill="#A6A4A4"/>
<path d="M8.72727 24C8.25227 24 7.8455 23.8236 7.50696 23.4708C7.16841 23.118 6.99943 22.6944 7 22.2V11.4C7 10.905 7.16927 10.4811 7.50782 10.1283C7.84637 9.7755 8.25285 9.5994 8.72727 9.6H11.4477L13.0455 7.8H18.2273V11.4H20.8182V14.1H24.2727V22.2C24.2727 22.695 24.1035 23.1189 23.7649 23.4717C23.4264 23.8245 23.0199 24.0006 22.5455 24H8.72727ZM15.6364 20.85C16.7159 20.85 17.6337 20.4561 18.3896 19.6683C19.1456 18.8805 19.5233 17.9244 19.5227 16.8C19.5227 15.675 19.1447 14.7186 18.3888 13.9308C17.6328 13.143 16.7153 12.7494 15.6364 12.75C14.5568 12.75 13.6391 13.1439 12.8831 13.9317C12.1271 14.7195 11.7494 15.6756 11.75 16.8C11.75 17.925 12.128 18.8814 12.884 19.6692C13.6399 20.457 14.5574 20.8506 15.6364 20.85ZM15.6364 19.05C15.0318 19.05 14.5208 18.8325 14.1034 18.3975C13.686 17.9625 13.4773 17.43 13.4773 16.8C13.4773 16.17 13.686 15.6375 14.1034 15.2025C14.5208 14.7675 15.0318 14.55 15.6364 14.55C16.2409 14.55 16.7519 14.7675 17.1693 15.2025C17.5867 15.6375 17.7955 16.17 17.7955 16.8C17.7955 17.43 17.5867 17.9625 17.1693 18.3975C16.7519 18.8325 16.2409 19.05 15.6364 19.05ZM22.5455 11.4V9.6H20.8182V7.8H22.5455V6H24.2727V7.8H26V9.6H24.2727V11.4H22.5455Z" fill="#A6A4A4"/>
</svg>
