<svg width="17" height="18" viewBox="0 0 17 18" fill="none" xmlns="http://www.w3.org/2000/svg">
<path fill-rule="evenodd" clip-rule="evenodd" d="M10.7978 0.250038C12.9072 0.243712 14.9427 1.02661 16.5042 2.44484C16.8109 2.72333 16.8337 3.19766 16.5552 3.50428C16.2767 3.8109 15.8024 3.83371 15.4958 3.55523C14.2123 2.38955 12.5395 1.74572 10.8058 1.75002C9.86809 1.76229 8.94191 1.95892 8.08004 2.32872C7.21708 2.699 6.43551 3.23564 5.77996 3.90799C5.12441 4.58035 4.60772 5.37526 4.25941 6.24732C4.25905 6.24822 4.25869 6.24913 4.25833 6.25003H13C13.4142 6.25003 13.75 6.58582 13.75 7.00003C13.75 7.41425 13.4142 7.75003 13 7.75003H3.84235C3.77572 8.15908 3.74464 8.57411 3.74994 8.99048L3.75006 9.00003H3.75C3.75 9.4263 3.78606 9.84397 3.85518 10.25H10C10.4142 10.25 10.75 10.5858 10.75 11C10.75 11.4142 10.4142 11.75 10 11.75H4.2783C5.33775 14.3906 7.87272 16.25 10.8 16.25C12.594 16.25 14.2259 15.5329 15.5119 14.4306C15.8264 14.161 16.2999 14.1974 16.5694 14.5119C16.839 14.8264 16.8026 15.2999 16.4881 15.5695C14.9741 16.8672 13.006 17.75 10.8 17.75C7.01336 17.75 3.81264 15.2185 2.68438 11.75H1C0.585786 11.75 0.25 11.4142 0.25 11C0.25 10.5858 0.585786 10.25 1 10.25H2.3375C2.28005 9.84291 2.25022 9.42713 2.25 9.00481C2.24488 8.58432 2.27043 8.16497 2.32606 7.75003H1C0.585786 7.75003 0.25 7.41425 0.25 7.00003C0.25 6.58582 0.585786 6.25003 1 6.25003H2.66508C2.72569 6.06168 2.79282 5.8752 2.86642 5.69094C3.2878 4.63593 3.91288 3.67426 4.70596 2.86084C5.49904 2.04743 6.44457 1.39821 7.48858 0.950253C8.53259 0.502298 9.65461 0.264382 10.7906 0.250094L10.7978 0.250004V0.250038Z" fill="#4C4C4C"/>
</svg>
