<svg width="21" height="20" viewBox="0 0 21 20" fill="none" xmlns="http://www.w3.org/2000/svg">
    <path d="M10.491 15C10.7743 15 11.012 14.904 11.204 14.712C11.396 14.52 11.4916 14.2827 11.491 14V9.975C11.491 9.69167 11.395 9.45833 11.203 9.275C11.011 9.09167 10.7736 9 10.491 9C10.2076 9 9.96997 9.096 9.77797 9.288C9.58597 9.48 9.4903 9.71733 9.49097 10V14.025C9.49097 14.3083 9.58697 14.5417 9.77897 14.725C9.97097 14.9083 10.2083 15 10.491 15ZM10.491 7C10.7743 7 11.012 6.904 11.204 6.712C11.396 6.52 11.4916 6.28267 11.491 6C11.491 5.71667 11.395 5.479 11.203 5.287C11.011 5.095 10.7736 4.99933 10.491 5C10.2076 5 9.96997 5.096 9.77797 5.288C9.58597 5.48 9.4903 5.71733 9.49097 6C9.49097 6.28333 9.58697 6.521 9.77897 6.713C9.97097 6.905 10.2083 7.00067 10.491 7ZM10.491 20C9.10763 20 7.80763 19.7373 6.59097 19.212C5.3743 18.6867 4.31597 17.9743 3.41597 17.075C2.51597 16.175 1.80363 15.1167 1.27897 13.9C0.7543 12.6833 0.491633 11.3833 0.490967 10C0.490967 8.61667 0.753634 7.31667 1.27897 6.1C1.8043 4.88333 2.51663 3.825 3.41597 2.925C4.31597 2.025 5.3743 1.31267 6.59097 0.788C7.80763 0.263333 9.10763 0.000666667 10.491 0C11.8743 0 13.1743 0.262667 14.391 0.788C15.6076 1.31333 16.666 2.02567 17.566 2.925C18.466 3.825 19.1786 4.88333 19.704 6.1C20.2293 7.31667 20.4916 8.61667 20.491 10C20.491 11.3833 20.2283 12.6833 19.703 13.9C19.1776 15.1167 18.4653 16.175 17.566 17.075C16.666 17.975 15.6076 18.6877 14.391 19.213C13.1743 19.7383 11.8743 20.0007 10.491 20Z"
          />
</svg>
