<svg width="12" height="19" viewBox="0 0 12 19" fill="none" xmlns="http://www.w3.org/2000/svg">
<path d="M9.55011 18.575L1.12511 10.175C1.02511 10.075 0.954113 9.96667 0.912113 9.85C0.870113 9.73333 0.849447 9.60833 0.850113 9.475C0.850113 9.34167 0.871113 9.21667 0.913113 9.1C0.955113 8.98333 1.02578 8.875 1.12511 8.775L9.55011 0.35C9.78345 0.116667 10.0751 0 10.4251 0C10.7751 0 11.0751 0.125 11.3251 0.375C11.5751 0.625 11.7001 0.916667 11.7001 1.25C11.7001 1.58333 11.5751 1.875 11.3251 2.125L3.97511 9.475L11.3251 16.825C11.5584 17.0583 11.6751 17.346 11.6751 17.688C11.6751 18.03 11.5501 18.3257 11.3001 18.575C11.0501 18.825 10.7584 18.95 10.4251 18.95C10.0918 18.95 9.80011 18.825 9.55011 18.575Z" fill="black"/>
</svg>
