<svg width="47" height="43" viewBox="0 0 47 43" fill="none" xmlns="http://www.w3.org/2000/svg">
    <path
            d="M13.9224 7.28925L17.6743 12.2187M17.5217 29.1209L15.2062 35.557M31.8451 20.4722H40.0311M17.6902 38.6854C17.6902 40.516 16.2013 42 14.3646 42C12.528 42 11.039 40.516 11.039 38.6854C11.039 36.8548 12.528 35.3708 14.3646 35.3708C16.2013 35.3708 17.6902 36.8548 17.6902 38.6854ZM15.8142 4.85948C15.8142 6.69008 14.3253 8.17408 12.4886 8.17408C10.652 8.17408 9.16309 6.69008 9.16309 4.85948C9.16309 3.02888 10.652 1.54488 12.4886 1.54488C14.3253 1.54488 15.8142 3.02888 15.8142 4.85948ZM46 20.8376C46 22.6682 44.5111 24.1522 42.6744 24.1522C40.8378 24.1522 39.3489 22.6682 39.3489 20.8376C39.3489 19.0069 40.8378 17.523 42.6744 17.523C44.5111 17.523 46 19.0069 46 20.8376ZM36.241 6.60932C36.241 9.70727 33.7213 12.2186 30.6131 12.2186C27.5049 12.2186 24.9852 9.70727 24.9852 6.60932C24.9852 3.51138 27.5049 1 30.6131 1C33.7213 1 36.241 3.51138 36.241 6.60932ZM36.241 35.0308C36.241 38.1288 33.7213 40.6402 30.6131 40.6402C27.5049 40.6402 24.9852 38.1288 24.9852 35.0308C24.9852 31.9329 27.5049 29.4215 30.6131 29.4215C33.7213 29.4215 36.241 31.9329 36.241 35.0308ZM11.9146 20.5433C11.9146 23.5474 9.47132 25.9827 6.45732 25.9827C3.44333 25.9827 0.999999 23.5474 0.999999 20.5433C0.999999 17.5393 3.44333 15.104 6.45732 15.104C9.47132 15.104 11.9146 17.5393 11.9146 20.5433ZM17.2638 11.7436H27.4963L32.6125 20.4126L27.4963 29.4215H17.2638L12.0623 20.4126L17.2638 11.7436Z"
            stroke="#161A2B" stroke-width="2"/>
</svg>