<svg width="19" height="20" viewBox="0 0 19 20" fill="none" xmlns="http://www.w3.org/2000/svg">
    <path d="M0.490967 19.6V0C0.5243 0 0.5703 0.00399985 0.628967 0.0119998C0.687633 0.0199998 0.7583 0.0659999 0.840967 0.15L1.64097 0.95C1.74097 1.05 1.85763 1.1 1.99097 1.1C2.1243 1.1 2.24097 1.05 2.34097 0.95L3.14097 0.15C3.24097 0.0499999 3.35763 0 3.49097 0C3.6243 0 3.74097 0.0499999 3.84097 0.15L4.64097 0.95C4.74097 1.05 4.85763 1.1 4.99097 1.1C5.1243 1.1 5.24097 1.05 5.34097 0.95L6.14097 0.15C6.24097 0.0499999 6.35763 0 6.49097 0C6.6243 0 6.74097 0.0499999 6.84097 0.15L7.64097 0.95C7.74097 1.05 7.85763 1.1 7.99097 1.1C8.1243 1.1 8.24097 1.05 8.34097 0.95L9.14097 0.15C9.24097 0.0499999 9.35763 0 9.49097 0C9.6243 0 9.74097 0.0499999 9.84097 0.15L10.641 0.95C10.741 1.05 10.8576 1.1 10.991 1.1C11.1243 1.1 11.241 1.05 11.341 0.95L12.141 0.15C12.241 0.0499999 12.3576 0 12.491 0C12.6243 0 12.741 0.0499999 12.841 0.15L13.641 0.95C13.741 1.05 13.8576 1.1 13.991 1.1C14.1243 1.1 14.241 1.05 14.341 0.95L15.141 0.15C15.241 0.0499999 15.3576 0 15.491 0C15.6243 0 15.741 0.0499999 15.841 0.15L16.641 0.95C16.741 1.05 16.8576 1.1 16.991 1.1C17.1243 1.1 17.241 1.05 17.341 0.95L18.141 0.15C18.2243 0.0666665 18.2953 0.021 18.354 0.013C18.4126 0.00500001 18.4583 0.000666667 18.491 0V19.6C18.4576 19.6 18.412 19.5957 18.354 19.587C18.296 19.5783 18.225 19.5327 18.141 19.45L17.341 18.65C17.241 18.55 17.1243 18.5 16.991 18.5C16.8576 18.5 16.741 18.55 16.641 18.65L15.841 19.45C15.741 19.55 15.6243 19.6 15.491 19.6C15.3576 19.6 15.241 19.55 15.141 19.45L14.341 18.65C14.241 18.55 14.1243 18.5 13.991 18.5C13.8576 18.5 13.741 18.55 13.641 18.65L12.841 19.45C12.741 19.55 12.6243 19.6 12.491 19.6C12.3576 19.6 12.241 19.55 12.141 19.45L11.341 18.65C11.241 18.55 11.1243 18.5 10.991 18.5C10.8576 18.5 10.741 18.55 10.641 18.65L9.84097 19.45C9.74097 19.55 9.6243 19.6 9.49097 19.6C9.35763 19.6 9.24097 19.55 9.14097 19.45L8.34097 18.65C8.24097 18.55 8.1243 18.5 7.99097 18.5C7.85763 18.5 7.74097 18.55 7.64097 18.65L6.84097 19.45C6.74097 19.55 6.6243 19.6 6.49097 19.6C6.35763 19.6 6.24097 19.55 6.14097 19.45L5.34097 18.65C5.24097 18.55 5.1243 18.5 4.99097 18.5C4.85763 18.5 4.74097 18.55 4.64097 18.65L3.84097 19.45C3.74097 19.55 3.6243 19.6 3.49097 19.6C3.35763 19.6 3.24097 19.55 3.14097 19.45L2.34097 18.65C2.24097 18.55 2.1243 18.5 1.99097 18.5C1.85763 18.5 1.74097 18.55 1.64097 18.65L0.840967 19.45C0.757633 19.5333 0.686634 19.5793 0.627967 19.588C0.5693 19.5967 0.523633 19.6007 0.490967 19.6ZM4.49097 14.8H14.491C14.7743 14.8 15.012 14.704 15.204 14.512C15.396 14.32 15.4916 14.0827 15.491 13.8C15.491 13.5167 15.395 13.279 15.203 13.087C15.011 12.895 14.7736 12.7993 14.491 12.8H4.49097C4.20763 12.8 3.96997 12.896 3.77797 13.088C3.58597 13.28 3.4903 13.5173 3.49097 13.8C3.49097 14.0833 3.58697 14.321 3.77897 14.513C3.97097 14.705 4.2083 14.8007 4.49097 14.8ZM4.49097 10.8H14.491C14.7743 10.8 15.012 10.704 15.204 10.512C15.396 10.32 15.4916 10.0827 15.491 9.8C15.491 9.51667 15.395 9.279 15.203 9.087C15.011 8.895 14.7736 8.79933 14.491 8.8H4.49097C4.20763 8.8 3.96997 8.896 3.77797 9.088C3.58597 9.28 3.4903 9.51733 3.49097 9.8C3.49097 10.0833 3.58697 10.321 3.77897 10.513C3.97097 10.705 4.2083 10.8007 4.49097 10.8ZM4.49097 6.8H14.491C14.7743 6.8 15.012 6.704 15.204 6.512C15.396 6.32 15.4916 6.08267 15.491 5.8C15.491 5.51667 15.395 5.279 15.203 5.087C15.011 4.895 14.7736 4.79933 14.491 4.8H4.49097C4.20763 4.8 3.96997 4.896 3.77797 5.088C3.58597 5.28 3.4903 5.51733 3.49097 5.8C3.49097 6.08333 3.58697 6.321 3.77897 6.513C3.97097 6.705 4.2083 6.80067 4.49097 6.8Z"
          />
</svg>
