<svg width="20" height="20" viewBox="0 0 20 20" fill="none" xmlns="http://www.w3.org/2000/svg">
    <path d="M15.0001 10.8316H10.8334V14.9983C10.8334 15.2193 10.7456 15.4313 10.5893 15.5876C10.4331 15.7438 10.2211 15.8316 10.0001 15.8316C9.77907 15.8316 9.56711 15.7438 9.41083 15.5876C9.25455 15.4313 9.16675 15.2193 9.16675 14.9983V10.8316H5.00008C4.77907 10.8316 4.56711 10.7438 4.41083 10.5876C4.25455 10.4313 4.16675 10.2193 4.16675 9.99831C4.16675 9.7773 4.25455 9.56534 4.41083 9.40906C4.56711 9.25278 4.77907 9.16498 5.00008 9.16498H9.16675V4.99831C9.16675 4.7773 9.25455 4.56534 9.41083 4.40906C9.56711 4.25278 9.77907 4.16498 10.0001 4.16498C10.2211 4.16498 10.4331 4.25278 10.5893 4.40906C10.7456 4.56534 10.8334 4.7773 10.8334 4.99831V9.16498H15.0001C15.2211 9.16498 15.4331 9.25278 15.5893 9.40906C15.7456 9.56534 15.8334 9.7773 15.8334 9.99831C15.8334 10.2193 15.7456 10.4313 15.5893 10.5876C15.4331 10.7438 15.2211 10.8316 15.0001 10.8316Z"

    />
</svg>
