<svg width="22" height="23" viewBox="0 0 22 23" fill="none" xmlns="http://www.w3.org/2000/svg">
    <path
            d="M11 0.5C4.928 0.5 0 5.428 0 11.5C0 17.572 4.928 22.5 11 22.5C17.072 22.5 22 17.572 22 11.5C22 5.428 17.072 0.5 11 0.5ZM11 3.8C12.826 3.8 14.3 5.274 14.3 7.1C14.3 8.926 12.826 10.4 11 10.4C9.174 10.4 7.7 8.926 7.7 7.1C7.7 5.274 9.174 3.8 11 3.8ZM11 19.42C8.25 19.42 5.819 18.012 4.4 15.878C4.433 13.689 8.8 12.49 11 12.49C13.189 12.49 17.567 13.689 17.6 15.878C16.181 18.012 13.75 19.42 11 19.42Z"
    />
</svg>