<svg width="7" height="12" viewBox="0 0 7 12" fill="none" xmlns="http://www.w3.org/2000/svg">
    <path d="M0.46875 11.6953C0.3125 11.5391 0.234375 11.3541 0.234375 11.1403C0.234375 10.9266 0.3125 10.7418 0.46875 10.5859L5.04688 6.00781L0.453125 1.41406C0.307292 1.26823 0.234375 1.08594 0.234375 0.867188C0.234375 0.648438 0.3125 0.460938 0.46875 0.304688C0.625 0.148438 0.81 0.0703125 1.02375 0.0703125C1.2375 0.0703125 1.42229 0.148438 1.57812 0.304688L6.82813 5.57031C6.89063 5.63281 6.935 5.70052 6.96125 5.77344C6.9875 5.84635 7.00042 5.92448 7 6.00781C7 6.09115 6.98688 6.16927 6.96063 6.24219C6.93438 6.3151 6.89021 6.38281 6.82813 6.44531L1.5625 11.7109C1.41667 11.8568 1.23687 11.9297 1.02312 11.9297C0.809375 11.9297 0.624583 11.8516 0.46875 11.6953Z"
    />
</svg>
