<svg width="14" height="18" viewBox="0 0 14 18" fill="none" xmlns="http://www.w3.org/2000/svg">
<path d="M3.00065 18C3.55077 18 4.00087 17.55 4.00087 17V15H7.00152C7.55164 15 8.00173 14.55 8.00173 14C8.00173 13.45 7.55164 13 7.00152 13H4.00087V11H8.50184C11.7225 11 14.2931 8.24 13.973 4.96C13.703 2.1 11.1424 0 8.26179 0H3.00065C2.45053 0 2.00043 0.45 2.00043 1V9H1.00022C0.450098 9 0 9.45 0 10C0 10.55 0.450098 11 1.00022 11H2.00043V13H1.00022C0.450098 13 0 13.45 0 14C0 14.55 0.450098 15 1.00022 15H2.00043V17C2.00043 17.55 2.45053 18 3.00065 18ZM8.50184 9H4.00087V2H8.50184C10.4323 2 12.0026 3.57 12.0026 5.5C12.0026 7.43 10.4323 9 8.50184 9Z" fill="#4C4C4C"/>
</svg>
