<svg width="20" height="20" viewBox="0 0 20 20" fill="none" xmlns="http://www.w3.org/2000/svg">
    <path d="M11.6205 20H7.87045C7.62045 20 7.40379 19.9167 7.22045 19.75C7.03712 19.5833 6.92879 19.375 6.89545 19.125L6.59545 16.8C6.37879 16.7167 6.17445 16.6167 5.98245 16.5C5.79045 16.3833 5.60312 16.2583 5.42045 16.125L3.24545 17.025C3.01212 17.1083 2.77879 17.1167 2.54545 17.05C2.31212 16.9833 2.12879 16.8417 1.99545 16.625L0.145455 13.4C0.0121212 13.1833 -0.0295455 12.95 0.0204545 12.7C0.0704545 12.45 0.195455 12.25 0.395455 12.1L2.27045 10.675C2.25379 10.5583 2.24545 10.4457 2.24545 10.337V9.663C2.24545 9.55433 2.25379 9.44167 2.27045 9.325L0.395455 7.9C0.195455 7.75 0.0704545 7.55 0.0204545 7.3C-0.0295455 7.05 0.0121212 6.81667 0.145455 6.6L1.99545 3.375C2.11212 3.14167 2.29112 2.99567 2.53245 2.937C2.77379 2.87833 3.01145 2.891 3.24545 2.975L5.42045 3.875C5.60379 3.74167 5.79545 3.61667 5.99545 3.5C6.19545 3.38333 6.39545 3.28333 6.59545 3.2L6.89545 0.875C6.92879 0.625 7.03712 0.416667 7.22045 0.25C7.40379 0.0833333 7.62045 0 7.87045 0H11.6205C11.8705 0 12.0871 0.0833333 12.2705 0.25C12.4538 0.416667 12.5621 0.625 12.5955 0.875L12.8955 3.2C13.1121 3.28333 13.3165 3.38333 13.5085 3.5C13.7005 3.61667 13.8878 3.74167 14.0705 3.875L16.2455 2.975C16.4788 2.89167 16.7121 2.88333 16.9455 2.95C17.1788 3.01667 17.3621 3.15833 17.4955 3.375L19.3455 6.6C19.4788 6.81667 19.5205 7.05 19.4705 7.3C19.4205 7.55 19.2955 7.75 19.0955 7.9L17.2205 9.325C17.2371 9.44167 17.2455 9.55433 17.2455 9.663V10.337C17.2455 10.4457 17.2288 10.5583 17.1955 10.675L19.0705 12.1C19.2705 12.25 19.3955 12.45 19.4455 12.7C19.4955 12.95 19.4538 13.1833 19.3205 13.4L17.4705 16.6C17.3371 16.8167 17.1495 16.9627 16.9075 17.038C16.6655 17.1133 16.4281 17.109 16.1955 17.025L14.0705 16.125C13.8871 16.2583 13.6955 16.3833 13.4955 16.5C13.2955 16.6167 13.0955 16.7167 12.8955 16.8L12.5955 19.125C12.5621 19.375 12.4538 19.5833 12.2705 19.75C12.0871 19.9167 11.8705 20 11.6205 20ZM9.79545 13.5C10.7621 13.5 11.5871 13.1583 12.2705 12.475C12.9538 11.7917 13.2955 10.9667 13.2955 10C13.2955 9.03333 12.9538 8.20833 12.2705 7.525C11.5871 6.84167 10.7621 6.5 9.79545 6.5C8.81212 6.5 7.98279 6.84167 7.30745 7.525C6.63212 8.20833 6.29479 9.03333 6.29545 10C6.29545 10.9667 6.63279 11.7917 7.30745 12.475C7.98212 13.1583 8.81145 13.5 9.79545 13.5Z"
     />
</svg>
