<svg width="21" height="20" viewBox="0 0 21 20" fill="none" xmlns="http://www.w3.org/2000/svg">
    <path d="M11.8022 0.543784C11.0772 -0.181261 9.90222 -0.181261 9.17722 0.543784L1.03472 8.68804C0.309717 9.41309 0.309717 10.5869 1.03472 11.3107L9.17972 19.4562C9.90472 20.1813 11.0785 20.1813 11.8022 19.4562L19.9472 11.3107C20.6722 10.5857 20.6722 9.41184 19.9472 8.68804L11.8022 0.543784ZM7.35847 7.54172C7.31817 7.54227 7.27819 7.53459 7.24097 7.51915C7.20375 7.50371 7.17006 7.48084 7.14198 7.45194C7.1139 7.42304 7.09201 7.38871 7.07765 7.35106C7.06329 7.3134 7.05676 7.27321 7.05847 7.23295C7.17722 5.11407 8.91097 4.37527 10.496 4.37527C12.241 4.37527 13.836 5.28783 13.836 7.17545C13.836 8.52553 13.0422 9.16807 12.281 9.74686C11.3597 10.4457 11.0185 10.7069 11.0185 11.6045V11.7357C11.0185 11.8186 10.9855 11.8981 10.9269 11.9567C10.8683 12.0153 10.7888 12.0483 10.706 12.0483H9.69347C9.61145 12.0483 9.53271 12.016 9.47425 11.9585C9.41578 11.901 9.38228 11.8227 9.38097 11.7407L9.37597 11.4695C9.32847 10.3106 9.99472 9.59685 10.836 8.98556C11.5735 8.43053 12.0422 8.0655 12.0422 7.2717C12.0422 6.24039 11.2572 5.81161 10.3997 5.81161C9.39597 5.81161 8.83347 6.40915 8.72222 7.2292C8.69972 7.40046 8.56222 7.54172 8.38972 7.54172H7.35847ZM10.2647 15.596C9.53472 15.596 9.00347 15.1034 9.00347 14.4372C9.00347 13.7471 9.53472 13.2621 10.266 13.2621C11.0272 13.2621 11.551 13.7471 11.551 14.4372C11.551 15.1034 11.026 15.596 10.2647 15.596Z"
    />
</svg>
